<?xml version="1.0" standalone="no"?>
<!DOCTYPE svg PUBLIC "-//W3C//DTD SVG 1.1//EN" "http://www.w3.org/Graphics/SVG/1.1/DTD/svg11.dtd" >
<svg xmlns="http://www.w3.org/2000/svg">
<metadata></metadata>
<defs>
<font id="kulturistasemibold" horiz-adv-x="1107" >
<font-face units-per-em="2048" ascent="1638" descent="-410" />
<missing-glyph horiz-adv-x="614" />
<glyph unicode="&#xfb01;" horiz-adv-x="1394" d="M41 858v197h205v82q0 66 6 117.5t22 98.5t41.5 80t65.5 57.5t94.5 35.5t127.5 10t165 -16v-187q-178 17 -236.5 -18.5t-58.5 -165.5v-94h682v-858h178v-197h-569v197h164v661h-455v-661h164v-197h-569v197h178v661h-205zM928 1235v262h227v-262h-227z" />
<glyph unicode="&#xfb02;" horiz-adv-x="1394" d="M41 858v197h205v82q0 64 7.5 113t27.5 98.5t57 84t92.5 62t138 40.5t189.5 13q163 0 397 -37v-1314h178v-197h-569v197h164v1144q-125 11 -178 11q-152 0 -214.5 -46t-62.5 -157v-94h295v-197h-295v-661h164v-197h-569v197h178v661h-205z" />
<glyph horiz-adv-x="0" />
<glyph horiz-adv-x="682" />
<glyph unicode=" "  horiz-adv-x="614" />
<glyph unicode="&#x09;" horiz-adv-x="614" />
<glyph unicode="&#xa0;" horiz-adv-x="614" />
<glyph unicode="!" horiz-adv-x="575" d="M174 0v264h227v-264h-227zM174 426v1008h227v-1008h-227z" />
<glyph unicode="&#x22;" horiz-adv-x="876" d="M133 1434h258l-31 -623h-196zM483 1434h260l-30 -623h-199z" />
<glyph unicode="#" horiz-adv-x="1497" d="M45 383v180h307l99 307h-234v183h293l123 381h198l-122 -381h292l123 381h201l-123 -381h250v-183h-309l-99 -307h236v-180h-293l-121 -383h-200l120 383h-290l-123 -383h-199l121 383h-250zM553 563h293l96 307h-291z" />
<glyph unicode="$" horiz-adv-x="1304" d="M119 0v449h243q1 -126 83 -191t221 -65q126 0 199 49.5t73 146.5q0 52 -17 87t-57.5 59.5t-93.5 40t-139 30.5q-260 44 -379 147.5t-119 301.5q0 182 110.5 284t295.5 113v227h227v-254q114 -38 188 -114l33 123h189v-449h-242q-1 127 -77.5 192.5t-215.5 65.5 q-123 0 -190.5 -48t-67.5 -142q0 -97 69 -144t226 -75q263 -46 386.5 -148.5t123.5 -300.5q0 -185 -117 -289.5t-305 -113.5v-228h-227v252q-124 39 -197 117l-33 -123h-190z" />
<glyph unicode="%" horiz-adv-x="1697" d="M133 926v262q0 125 76 190.5t207 65.5q129 0 204.5 -65.5t75.5 -190.5v-262q0 -125 -75.5 -190.5t-204.5 -65.5q-131 0 -207 65.5t-76 190.5zM256 0l985 1434h201l-985 -1434h-201zM311 926q0 -50 28 -75.5t77 -25.5q47 0 74.5 25.5t27.5 75.5v262q0 50 -27.5 75 t-74.5 25q-49 0 -77 -25t-28 -75v-262zM1001 246v262q0 124 76 190t205 66q131 0 207 -65.5t76 -190.5v-262q0 -125 -76 -190.5t-207 -65.5q-129 0 -205 66t-76 190zM1180 246q0 -50 27.5 -75.5t74.5 -25.5q49 0 76.5 25.5t27.5 75.5v262q0 50 -27.5 75t-76.5 25 q-47 0 -74.5 -25t-27.5 -75v-262z" />
<glyph unicode="&#x26;" horiz-adv-x="1333" d="M119 365q0 119 61 212t172 144q-213 93 -213 348q0 178 122.5 281.5t309.5 103.5q99 0 187 -33t151 -94l31 107h188v-430h-241v24q0 99 -65.5 157t-184.5 58t-183.5 -58t-64.5 -159q0 -89 63 -146t169 -57h712v-211h-205v-612h-180l-37 129q-120 -149 -360 -149 q-195 0 -313.5 110.5t-118.5 274.5zM369 397q0 -99 62 -151.5t181 -52.5q124 0 199.5 60t75.5 161v198h-275q-109 0 -176 -58.5t-67 -156.5z" />
<glyph unicode="'" horiz-adv-x="524" d="M133 1434h258l-31 -623h-196z" />
<glyph unicode="(" horiz-adv-x="620" d="M109 713q0 563 323 950h230q-153 -194 -239.5 -437.5t-86.5 -512.5q0 -263 87 -506.5t239 -435.5h-230q-323 382 -323 942z" />
<glyph unicode=")" horiz-adv-x="620" d="M-41 -229q153 196 239.5 439t86.5 511q0 263 -87 506.5t-239 435.5h229q324 -383 324 -942q0 -562 -324 -950h-229z" />
<glyph unicode="*" horiz-adv-x="954" d="M61 1184l52 157l301 -120l-19 329h164l-20 -325l305 118l49 -157l-311 -82l204 -250l-133 -96l-176 278l-178 -278l-133 96l205 248z" />
<glyph unicode="+" horiz-adv-x="1048" d="M61 621v196h359v375h207v-375h360v-196h-360v-373h-207v373h-359z" />
<glyph unicode="," horiz-adv-x="524" d="M129 -236l10 531h258l-102 -531h-166z" />
<glyph unicode="-" horiz-adv-x="565" d="M61 430v197h443v-197h-443z" />
<glyph unicode="." horiz-adv-x="524" d="M133 0v295h258v-295h-258z" />
<glyph unicode="/" horiz-adv-x="675" d="M-76 -229l627 1892h201l-627 -1892h-201z" />
<glyph unicode="0" horiz-adv-x="1290" d="M133 449v536q0 226 137 347.5t377 121.5q237 0 373.5 -122t136.5 -347v-536q0 -227 -137 -348t-377 -121q-237 0 -373.5 121.5t-136.5 347.5zM377 449q0 -123 70.5 -189.5t195.5 -66.5q127 0 198.5 66.5t71.5 189.5v536q0 123 -71 190.5t-195 67.5q-127 0 -198.5 -67 t-71.5 -191v-536z" />
<glyph unicode="1" horiz-adv-x="970" d="M92 0v213h303v975l-303 -217v248l303 215h242v-1221h283v-213h-828z" />
<glyph unicode="2" horiz-adv-x="1249" d="M133 0v213l615 578q122 116 122 241q0 99 -66 155t-177 56q-114 0 -182 -62.5t-68 -185.5v-67h-244v506h191l32 -117q64 68 152.5 102.5t181.5 34.5q117 0 212 -47.5t153.5 -143.5t58.5 -225q0 -202 -199 -389l-462 -436h673v-213h-993z" />
<glyph unicode="3" horiz-adv-x="1251" d="M129 379v67h244v-43q0 -102 64.5 -156t187.5 -54q118 0 179.5 57.5t61.5 157.5q0 97 -62.5 150.5t-172.5 53.5h-115v211h115q110 0 170.5 56.5t60.5 146.5q0 102 -61.5 159.5t-177.5 57.5q-117 0 -183.5 -65t-66.5 -166v-23h-244v445h190l33 -115q65 65 150.5 100 t177.5 35q185 2 308.5 -108t123.5 -291q0 -121 -55 -206t-160 -130q107 -42 164 -127t57 -209q0 -186 -129.5 -294.5t-363.5 -108.5q-236 0 -366 108t-130 291z" />
<glyph unicode="4" horiz-adv-x="1171" d="M61 397v211l418 826h254l-424 -826h314v283h243v-283h260v-211h-260v-184h181v-213h-603v213h179v184h-562z" />
<glyph unicode="5" horiz-adv-x="1249" d="M133 420v4h244v-18q0 -104 65.5 -158.5t180.5 -54.5q123 0 186 64t63 212q0 145 -63 210.5t-182 65.5q-188 0 -242 -137h-235l65 826h825v-211h-634l-37 -392q127 111 305 111q91 0 169 -27.5t140 -83t97.5 -150t35.5 -218.5q0 -237 -131 -360t-362 -123q-228 0 -359 114 t-131 326z" />
<glyph unicode="6" horiz-adv-x="1255" d="M133 430v584q0 133 60.5 235t158 153.5t213.5 51.5q100 0 187.5 -35.5t148.5 -99.5l31 115h190v-416h-243v14q0 98 -71.5 154.5t-180.5 56.5q-117 0 -183.5 -58t-66.5 -159v-262q114 117 307 117q199 0 318.5 -120t119.5 -331q0 -206 -134 -328t-361 -122 q-226 0 -360 122t-134 328zM377 438q0 -114 67 -179.5t183 -65.5q117 0 184.5 65.5t67.5 179.5q0 119 -64.5 182.5t-187.5 63.5q-115 0 -182.5 -66.5t-67.5 -179.5z" />
<glyph unicode="7" horiz-adv-x="1146" d="M78 999v435h991v-181l-582 -1253h-268l598 1223h-498v-224h-241z" />
<glyph unicode="8" horiz-adv-x="1245" d="M102 387q0 119 57 209.5t167 142.5q-91 50 -139 132.5t-48 191.5q0 177 128 284t354 107q229 0 357 -105t128 -286q0 -105 -48 -188t-138 -134q223 -103 223 -354q0 -187 -134.5 -297t-383.5 -110q-253 0 -388 108.5t-135 298.5zM346 412q0 -101 73 -160t206 -59 q131 0 202.5 59t71.5 160q0 104 -72.5 163.5t-205.5 59.5q-131 0 -203 -60t-72 -163zM381 1036q0 -93 64 -147.5t180 -54.5q111 0 174 54.5t63 147.5q0 96 -63.5 151.5t-177.5 55.5q-113 0 -176.5 -56t-63.5 -151z" />
<glyph unicode="9" horiz-adv-x="1255" d="M133 381v35h244v-13q0 -102 65.5 -157.5t186.5 -55.5q117 0 183.5 60.5t66.5 169.5v250q-114 -117 -308 -117q-203 0 -320.5 119.5t-117.5 331.5q0 206 134.5 328t361.5 122q226 0 359.5 -122t133.5 -328v-584q0 -205 -127.5 -322.5t-365.5 -117.5q-236 0 -366 108.5 t-130 292.5zM377 995q0 -119 64.5 -182t187.5 -63q115 0 182.5 66t67.5 179q0 114 -67.5 181t-182.5 67q-117 0 -184.5 -67t-67.5 -181z" />
<glyph unicode=":" horiz-adv-x="524" d="M133 0v295h258v-295h-258zM133 770v295h258v-295h-258z" />
<glyph unicode=";" horiz-adv-x="524" d="M129 -236l10 531h258l-102 -531h-166zM133 770v295h258v-295h-258z" />
<glyph unicode="&#x3c;" horiz-adv-x="1048" d="M61 621v198l926 352v-219l-678 -233l678 -234v-219z" />
<glyph unicode="=" horiz-adv-x="1048" d="M61 365v196h926v-196h-926zM61 877v196h926v-196h-926z" />
<glyph unicode="&#x3e;" horiz-adv-x="1048" d="M61 266v219l680 234l-680 233v219l926 -352v-198z" />
<glyph unicode="?" horiz-adv-x="1294" d="M133 993v43q0 192 139 305t375 113t375 -113t139 -305q0 -167 -107.5 -274.5t-293.5 -132.5v-203h-228v391h115q133 0 210 59t77 160q0 102 -77 161.5t-210 59.5q-132 0 -209.5 -60t-77.5 -161v-43h-227zM532 0v264h228v-264h-228z" />
<glyph unicode="@" horiz-adv-x="2127" d="M102 324q0 201 57.5 379.5t161 314.5t243.5 234.5t310.5 150t356.5 51.5q372 0 583 -196.5t211 -536.5q0 -164 -44 -303t-115 -228.5t-159.5 -139.5t-180.5 -50q-95 0 -157.5 34t-96.5 113q-120 -167 -354 -167q-180 0 -269.5 110.5t-54.5 308.5l47 269 q35 200 148.5 303.5t291.5 103.5q212 0 299 -137l54 117h174l-133 -746q-10 -57 11.5 -89t65.5 -32q39 0 84.5 35t87.5 99t69.5 169.5t27.5 229.5q0 254 -157 401.5t-433 147.5q-190 0 -359 -68t-294 -189t-198 -299.5t-73 -389.5q0 -255 157.5 -402t434.5 -147 q238 0 436 106l72 -176q-239 -115 -508 -115q-373 0 -585 197t-212 537zM819 383q-17 -95 32.5 -151t141.5 -56q102 0 177.5 63t95.5 171l45 252q18 98 -41 157.5t-164 59.5q-199 0 -234 -195z" />
<glyph unicode="A" horiz-adv-x="1523" d="M10 0v213h166l440 1221h302l440 -1221h155v-213h-571v213h158l-78 209h-533l-77 -209h170v-213h-572zM557 635h397l-198 553z" />
<glyph unicode="B" horiz-adv-x="1361" d="M92 0v213h180v1010h-180v211h754q193 0 301 -97t108 -284q0 -235 -172 -328q95 -42 146 -129.5t51 -214.5q0 -186 -108 -283.5t-302 -97.5h-778zM516 213h313q201 0 201 197q0 202 -201 202h-313v-399zM516 823h289q199 0 199 201q0 199 -199 199h-289v-400z" />
<glyph unicode="C" horiz-adv-x="1325" d="M113 498v440q0 240 141.5 378t384.5 138q241 0 367 -145l32 125h191v-486h-244v8q0 137 -82.5 212t-226.5 75q-151 0 -235.5 -79.5t-84.5 -225.5v-440q0 -147 84 -226t232 -79t230.5 73.5t82.5 210.5v10h244v-10q0 -240 -148.5 -368.5t-408.5 -128.5q-261 0 -410 134 t-149 384z" />
<glyph unicode="D" horiz-adv-x="1433" d="M92 0v213h180v1010h-180v211h662q262 0 411.5 -133t149.5 -381v-406q0 -248 -149.5 -381t-413.5 -133h-660zM516 213h234q151 0 236 77.5t85 223.5v406q0 146 -84.5 224.5t-234.5 78.5h-236v-1010z" />
<glyph unicode="E" horiz-adv-x="1314" d="M92 0v213h180v1010h-180v211h1141v-435h-242v224h-475v-400h492v-211h-492v-399h475v223h242v-436h-1141z" />
<glyph unicode="F" horiz-adv-x="1314" d="M92 0v213h180v1010h-180v211h1131v-435h-242v224h-465v-426h481v-213h-481v-371h234v-213h-658z" />
<glyph unicode="G" horiz-adv-x="1349" d="M113 498v440q0 240 141.5 378t384.5 138q250 0 369 -137l30 117h191v-455h-244v20q-4 119 -86 181.5t-223 62.5q-151 0 -235.5 -79.5t-84.5 -225.5v-440q0 -147 84 -226t232 -79t230.5 73.5t82.5 210.5v72h-377v213h621v-762h-180l-35 123q-137 -143 -391 -143 q-238 0 -374 133t-136 385z" />
<glyph unicode="H" horiz-adv-x="1648" d="M92 0v213h180v1010h-180v211h602v-211h-178v-400h619v400h-181v211h602v-211h-180v-1010h180v-213h-602v213h181v399h-619v-399h178v-213h-602z" />
<glyph unicode="I" horiz-adv-x="786" d="M92 0v213h180v1010h-180v211h602v-211h-178v-1010h178v-213h-602z" />
<glyph unicode="J" horiz-adv-x="1259" d="M68 432v57h241v-57q0 -115 66 -177t182 -62q117 0 183.5 62t66.5 177v791h-221v211h643v-211h-178v-791q0 -218 -132 -335t-362 -117q-228 0 -358.5 117t-130.5 335z" />
<glyph unicode="K" horiz-adv-x="1607" d="M92 0v213h180v1010h-180v211h602v-211h-178v-473l520 473h-162v211h633v-211h-151l-467 -418l487 -592h160v-213h-631v213h152l-355 436l-186 -170v-266h178v-213h-602z" />
<glyph unicode="L" horiz-adv-x="1284" d="M92 0v213h180v1010h-180v211h658v-211h-234v-1010h475v264h242v-477h-1141z" />
<glyph unicode="M" horiz-adv-x="1812" d="M92 0v213h180v1010h-180v211h416l399 -754l400 754h413v-211h-178v-1010h178v-213h-602v213h180v741l-391 -737l-391 737v-741h178v-213h-602z" />
<glyph unicode="N" horiz-adv-x="1587" d="M92 0v213h180v1010h-180v211h408l635 -988v777h-181v211h602v-211h-178v-1223h-229l-633 987v-774h178v-213h-602z" />
<glyph unicode="O" horiz-adv-x="1351" d="M113 498v440q0 248 150.5 382t414.5 134q261 0 411 -134t150 -382v-440q0 -250 -150.5 -384t-414.5 -134q-261 0 -411 134t-150 384zM356 498q0 -147 84.5 -226t233.5 -79q151 0 236 79t85 226v440q0 146 -84.5 225.5t-232.5 79.5q-151 0 -236.5 -79.5t-85.5 -225.5v-440 z" />
<glyph unicode="P" horiz-adv-x="1361" d="M92 0v213h180v1010h-180v211h744q224 0 349.5 -113t125.5 -348t-125 -349t-350 -114h-320v-297h234v-213h-658zM516 721h309q232 0 232 252q0 250 -232 250h-309v-502z" />
<glyph unicode="Q" horiz-adv-x="1341" d="M113 498v440q0 248 150.5 382t414.5 134q261 0 411 -134t150 -382v-440q0 -172 -73.5 -290.5t-209.5 -176.5l281 -269l-172 -172l-387 390h-4q-261 0 -411 134t-150 384zM356 498q0 -147 84.5 -226t233.5 -79q151 0 236 79t85 226v440q0 146 -84.5 225.5t-232.5 79.5 q-151 0 -236.5 -79.5t-85.5 -225.5v-440z" />
<glyph unicode="R" horiz-adv-x="1433" d="M92 0v213h180v1010h-180v211h744q222 0 348.5 -109t126.5 -326q0 -172 -80 -276.5t-227 -140.5l215 -369h198v-213h-356l-324 563h-221v-350h189v-213h-613zM516 776h309q110 0 171 55t61 168t-61 168.5t-171 55.5h-309v-447z" />
<glyph unicode="S" horiz-adv-x="1273" d="M102 0v449h244q1 -126 82.5 -191t220.5 -65q126 0 199.5 49.5t73.5 146.5q0 52 -17 87t-58 59.5t-94 40t-139 30.5q-259 44 -378 147.5t-119 301.5q0 193 123.5 296t326.5 103q103 0 203 -35.5t168 -107.5l33 123h188v-449h-241q-1 127 -77.5 192.5t-215.5 65.5 q-123 0 -190.5 -48t-67.5 -142q0 -97 69 -144t226 -75q263 -46 386 -148.5t123 -300.5q0 -195 -129 -300t-333 -105q-108 0 -210.5 35t-172.5 108l-33 -123h-191z" />
<glyph unicode="T" horiz-adv-x="1347" d="M51 999v435h1245v-435h-243v224h-256v-1010h219v-213h-684v213h221v1010h-258v-224h-244z" />
<glyph unicode="U" horiz-adv-x="1525" d="M31 1223v211h602v-211h-178v-736q0 -143 81 -218.5t226 -75.5q147 0 228 75.5t81 218.5v736h-178v211h602v-211h-180v-736q0 -245 -147 -376t-406 -131q-258 0 -404.5 131t-146.5 376v736h-180z" />
<glyph unicode="V" horiz-adv-x="1507" d="M10 1223v211h572v-211h-158l336 -955l336 955h-170v211h571v-211h-164l-442 -1223h-285l-442 1223h-154z" />
<glyph unicode="W" horiz-adv-x="2029" d="M10 1223v211h572v-211h-174l219 -912l268 1123h235l269 -1123l219 912h-170v211h571v-211h-168l-313 -1223h-274l-256 989l-252 -989h-275l-315 1223h-156z" />
<glyph unicode="X" horiz-adv-x="1497" d="M57 0v213h158l393 500l-393 510h-158v211h586v-211h-137l250 -351l252 351h-152v211h586v-211h-158l-393 -502l393 -508h158v-213h-586v213h137l-250 348l-254 -348h154v-213h-586z" />
<glyph unicode="Y" horiz-adv-x="1417" d="M0 1223v211h586v-211h-146l283 -467l283 467h-177v211h588v-211h-153l-433 -697v-313h220v-213h-684v213h221v313l-434 697h-154z" />
<glyph unicode="Z" horiz-adv-x="1191" d="M68 0v213l768 1010h-527v-224h-241v435h1058v-211l-770 -1010h527v223h243v-436h-1058z" />
<glyph unicode="[" horiz-adv-x="632" d="M133 -229v1892h459v-211h-215v-1470h215v-211h-459z" />
<glyph unicode="\" horiz-adv-x="675" d="M-74 1663h201l627 -1892h-201z" />
<glyph unicode="]" horiz-adv-x="632" d="M41 -18h215v1470h-215v211h459v-1892h-459v211z" />
<glyph unicode="^" horiz-adv-x="1077" d="M61 766l361 963h233l361 -963h-238l-246 721l-243 -721h-228z" />
<glyph unicode="_" horiz-adv-x="1044" d="M10 -20h1024v-166h-1024v166z" />
<glyph unicode="`" horiz-adv-x="507" d="M41 1516h238l188 -328h-180z" />
<glyph unicode="a" horiz-adv-x="1163" d="M72 305q0 159 100.5 241.5t278.5 82.5q187 0 290 -92v168q0 88 -52 136t-144 48q-101 0 -148 -38t-47 -122h-227q0 171 108.5 258.5t313.5 87.5q198 0 311 -98t113 -285v-495h164v-197h-338l-31 104q-100 -124 -315 -124q-176 0 -276.5 82.5t-100.5 242.5zM299 311 q0 -135 217 -135q104 0 164.5 34.5t60.5 100.5t-61 102t-164 36q-217 0 -217 -138z" />
<glyph unicode="b" horiz-adv-x="1191" d="M10 1319v197h408v-549q105 108 284 108q180 0 282.5 -105t102.5 -302v-281q0 -197 -103 -302t-284 -105q-200 0 -305 129l-30 -109h-175v1319h-180zM418 377q0 -96 60.5 -148.5t162.5 -52.5q103 0 161 51t58 146v309q0 95 -58 146t-159 51q-103 0 -164 -52.5t-61 -148.5 v-301z" />
<glyph unicode="c" horiz-adv-x="1087" d="M104 389v277q0 197 112.5 303t303.5 106q188 0 279 -117l28 97h174v-379h-227v14q-3 93 -60.5 141t-158.5 48q-104 0 -162.5 -50.5t-58.5 -146.5v-307q0 -97 58.5 -148t162.5 -51t161.5 48t57.5 138v17h227v-2q0 -191 -119.5 -294t-326.5 -103q-210 0 -330.5 106 t-120.5 303z" />
<glyph unicode="d" horiz-adv-x="1212" d="M104 387v281q0 196 104 301.5t284 105.5t282 -102v346h-178v197h405v-1319h181v-197h-355l-28 109q-104 -129 -305 -129q-182 0 -286 105.5t-104 301.5zM334 373q0 -95 58 -146t159 -51q103 0 163 52t60 149v301q0 97 -60 149t-163 52q-101 0 -159 -51t-58 -146v-309z " />
<glyph unicode="e" d="M104 389v279q0 198 121 302.5t330 104.5q207 0 326.5 -104.5t119.5 -302.5v-211h-667v-82q0 -93 57.5 -146t163.5 -53q196 0 217 160h229q-15 -173 -132 -264.5t-314 -91.5q-208 0 -329.5 106t-121.5 303zM334 631h440v51q0 97 -58 147t-161 50t-162 -50t-59 -147v-51z " />
<glyph unicode="f" horiz-adv-x="768" d="M41 858v197h205v82q0 66 6 117.5t22 98.5t41.5 80t65.5 57.5t95 35.5q49 10 115 10h12q73 -1 165 -16v-187q-58 6 -103 6q-94 0 -133 -25q-59 -35 -59 -165v-94h295v-197h-295v-661h180v-197h-585v197h178v661h-205z" />
<glyph unicode="g" horiz-adv-x="1191" d="M104 -31h230v-16q0 -90 57.5 -138t159.5 -48q105 0 164 50.5t59 145.5v174q-103 -106 -280 -106q-182 0 -286 105.5t-104 301.5v230q0 196 104 301.5t284 105.5q203 0 305 -129l30 109h355v-197h-181v-878q0 -198 -120 -304t-330 -106q-207 0 -327 103t-120 294v2z M334 424q0 -95 58 -146t159 -51q103 0 163 52t60 149v250q0 97 -60 149t-163 52q-101 0 -159 -51t-58 -146v-258z" />
<glyph unicode="h" horiz-adv-x="1378" d="M92 0v197h180v1122h-180v197h408v-543q102 102 284 102q179 0 282 -102.5t103 -300.5v-475h179v-197h-406v688q0 96 -57 143.5t-160 47.5t-164 -50t-61 -147v-485h178v-197h-586z" />
<glyph unicode="i" horiz-adv-x="739" d="M92 0v197h180v661h-180v197h408v-858h178v-197h-586zM272 1235v262h228v-262h-228z" />
<glyph unicode="j" horiz-adv-x="673" d="M63 -219q40 -6 72 -6q61 0 91 23q46 34 46 147v913h-180v197h408v-1098q0 -60 -6 -109.5t-20 -93.5t-37 -76t-57 -56t-79 -34q-41 -10 -95 -10h-10q-60 1 -133 16v187zM272 1235v262h228v-262h-228z" />
<glyph unicode="k" horiz-adv-x="1349" d="M92 0v197h180v1122h-180v197h408v-977l338 319h-142v197h559v-197h-155l-264 -244l305 -417h164v-197h-306l-340 467l-159 -148v-122h164v-197h-572z" />
<glyph unicode="l" horiz-adv-x="739" d="M92 0v197h180v1122h-180v197h408v-1319h178v-197h-586z" />
<glyph unicode="m" horiz-adv-x="1890" d="M92 0v197h180v661h-180v197h354l29 -101q89 121 275 121q208 0 290 -149q90 149 295 149q162 0 254 -95t92 -278v-505h179v-197h-406v709q0 170 -178 170q-85 0 -135.5 -45t-50.5 -132v-505h163v-197h-391v709q0 170 -178 170q-83 0 -133.5 -45.5t-50.5 -131.5v-505h164 v-197h-572z" />
<glyph unicode="n" horiz-adv-x="1378" d="M92 0v197h180v661h-180v197h354l31 -107q106 127 307 127q179 0 282 -102.5t103 -300.5v-475h179v-197h-406v688q0 96 -57 143.5t-160 47.5t-164 -50t-61 -147v-485h178v-197h-586z" />
<glyph unicode="o" d="M104 387v281q0 198 121 302.5t330 104.5q207 0 326.5 -104.5t119.5 -302.5v-281q0 -198 -119.5 -302.5t-328.5 -104.5q-208 0 -328.5 104.5t-120.5 302.5zM334 373q0 -97 59 -147t160 -50q104 0 162.5 50t58.5 147v309q0 97 -58 147t-161 50t-162 -50t-59 -147v-309z" />
<glyph unicode="p" horiz-adv-x="1273" d="M92 -213h180v1071h-180v197h354l31 -109q104 129 307 129q180 0 282.5 -105t102.5 -302v-281q0 -197 -103 -302t-284 -105t-282 98v-291h178v-197h-586v197zM500 377q0 -96 60.5 -148.5t162.5 -52.5q103 0 161 51t58 146v309q0 95 -58 146t-159 51q-103 0 -164 -52.5 t-61 -148.5v-301z" />
<glyph unicode="q" horiz-adv-x="1191" d="M104 387v281q0 196 104 301.5t284 105.5q201 0 305 -129l30 109h355v-197h-181v-1071h181v-197h-586v197h178v299q-103 -106 -280 -106q-182 0 -286 105.5t-104 301.5zM334 373q0 -95 58 -146t159 -51q103 0 163 52t60 149v301q0 97 -60 149t-163 52q-101 0 -159 -51 t-58 -146v-309z" />
<glyph unicode="r" horiz-adv-x="890" d="M92 0v197h180v661h-180v197h354l35 -123q69 87 177 122q62 20 126 21q48 0 99 -12v-205q-63 10 -117 10q-98 0 -164 -32q-102 -50 -102 -154v-485h178v-197h-586z" />
<glyph unicode="s" horiz-adv-x="1060" d="M90 0v334h227q0 -83 59 -124.5t163 -41.5q204 0 204 125q0 59 -56 89t-181 54q-50 9 -85.5 17.5t-80.5 23t-76.5 31t-63.5 42.5t-51.5 58t-32 75.5t-12.5 96.5q0 57 22.5 108.5t65.5 94t114 67.5t161 25q191 0 287 -114l28 94h174v-334h-227v8q-6 158 -205 158 q-190 0 -190 -121q0 -60 58 -89.5t190 -55.5q49 -9 86 -18t79.5 -23.5t73 -31.5t60.5 -43t48.5 -57t30 -73.5t11.5 -93.5q0 -137 -104.5 -219t-268.5 -82q-205 0 -307 114l-27 -94h-174z" />
<glyph unicode="t" horiz-adv-x="829" d="M41 858v197h184v317l228 68v-385h295v-197h-295v-487q1 -130 59 -166q38 -24 127 -23q47 0 109 6v-188q-92 -15 -165 -16h-12q-65 0 -115 10q-54 11 -94.5 35.5t-66.5 57.5t-41.5 80t-22 98.5t-6.5 117.5v475h-184z" />
<glyph unicode="u" horiz-adv-x="1333" d="M31 858v197h407v-688q0 -96 57 -143.5t160 -47.5t164.5 50.5t61.5 146.5v485h-181v197h408v-858h178v-197h-354l-31 106q-105 -126 -305 -126q-179 0 -282 102.5t-103 300.5v475h-180z" />
<glyph unicode="v" horiz-adv-x="1318" d="M27 858v197h544v-197h-155l252 -653l254 653h-158v197h530v-197h-149l-340 -858h-289l-340 858h-149z" />
<glyph unicode="w" horiz-adv-x="1802" d="M27 858v197h536v-197h-172l189 -600l217 797h225l217 -797l186 600h-172v197h523v-197h-136l-278 -858h-258l-203 713l-203 -713h-256l-280 858h-135z" />
<glyph unicode="x" horiz-adv-x="1247" d="M51 0v197h123l313 323l-313 338h-123v197h514v-197h-114l188 -219l188 219h-114v197h483v-197h-123l-315 -323l315 -338h123v-197h-514v197h115l-189 219l-188 -219h115v-197h-484z" />
<glyph unicode="y" horiz-adv-x="1318" d="M27 858v197h544v-197h-155l252 -653l254 653h-158v197h530v-197h-149l-428 -1071h145v-197h-561v197h209l86 213h-80l-340 858h-149z" />
<glyph unicode="z" horiz-adv-x="1046" d="M82 0v197l600 661h-373v-162h-227v359h883v-197l-600 -661h370v163h230v-360h-883z" />
<glyph unicode="{" horiz-adv-x="694" d="M0 612v211h84q52 0 81.5 30t29.5 83v414q0 141 85.5 227t225.5 86h147v-211h-102q-54 0 -83.5 -30.5t-29.5 -84.5v-344q0 -96 -42.5 -168t-116.5 -108q74 -36 116.5 -108.5t42.5 -168.5v-344q0 -54 29.5 -84t83.5 -30h102v-211h-147q-140 0 -225.5 86t-85.5 227v414 q0 54 -29 84t-82 30h-84z" />
<glyph unicode="|" horiz-adv-x="471" d="M133 -276v1986h205v-1986h-205z" />
<glyph unicode="}" horiz-adv-x="694" d="M41 -18h102q54 0 83.5 30t29.5 84v344q0 96 43 168.5t117 108.5q-75 36 -117.5 108.5t-42.5 167.5v344q0 54 -29.5 84.5t-83.5 30.5h-102v211h147q140 0 226 -86t86 -227v-414q0 -53 29 -83t81 -30h84v-213h-84q-52 0 -81 -29.5t-29 -82.5v-414q0 -141 -86 -227t-226 -86 h-147v211z" />
<glyph unicode="~" horiz-adv-x="1048" d="M78 664q67 125 127.5 171t128.5 46q47 0 105.5 -24t103 -53t92 -53t74.5 -24q63 0 141 123l123 -76q-67 -126 -127.5 -171.5t-128.5 -45.5q-47 0 -107.5 24t-108 53t-97 53t-76.5 24q-25 0 -53.5 -27.5t-73.5 -97.5z" />
<glyph unicode="&#xa1;" horiz-adv-x="575" d="M174 -379v1010h227v-1010h-227zM174 791v264h227v-264h-227z" />
<glyph unicode="&#xa2;" horiz-adv-x="1128" d="M92 758v286q0 174 97 278t264 126v231h227v-243q91 -27 151 -99l31 97h174v-379h-229v2q0 200 -240 200q-121 0 -184.5 -50t-63.5 -146v-318q0 -97 64 -147.5t182 -50.5q117 0 179.5 47.5t62.5 138.5v17h229v-3q0 -165 -93 -264.5t-263 -124.5v-233h-227v231 q-173 25 -267 128t-94 276z" />
<glyph unicode="&#xa3;" horiz-adv-x="1265" d="M51 0v213h197v410h-197v182h197v239q0 197 113 303.5t305 106.5q190 0 282 -115l29 95h190v-441h-243v47q0 99 -58 151t-157 52q-102 0 -161 -52t-59 -147v-239h383v-182h-383v-410h685v-213h-1123z" />
<glyph unicode="&#xa4;" horiz-adv-x="1325" d="M10 209l197 197q-90 136 -90 313q0 179 90 315l-191 191l140 139l190 -193q136 93 316 93q177 0 313 -90l199 198l141 -139l-201 -199q92 -134 92 -315q0 -182 -92 -316l193 -190l-140 -139l-190 192q-134 -92 -315 -92t-318 92l-194 -196zM344 719q0 -153 89 -250.5 t229 -97.5t228.5 97t88.5 251t-88.5 251t-228.5 97t-229 -97.5t-89 -250.5z" />
<glyph unicode="&#xa5;" horiz-adv-x="1417" d="M0 1223v211h586v-211h-146l283 -467l283 467h-177v211h588v-211h-153l-322 -516h260v-183h-371v-311h220v-213h-684v213h221v311h-371v183h258l-321 516h-154z" />
<glyph unicode="&#xa6;" horiz-adv-x="471" d="M133 -276v749h205v-749h-205zM133 961v749h205v-749h-205z" />
<glyph unicode="&#xa7;" horiz-adv-x="1269" d="M102 500q0 174 125 278q-125 92 -125 269q0 196 140 301.5t391 105.5q253 0 390.5 -110t137.5 -324v-27h-241v27q0 110 -74 166.5t-213 56.5q-137 0 -208 -46.5t-71 -133.5q0 -73 45.5 -106t139.5 -50l252 -45q189 -35 282.5 -115.5t93.5 -222.5q0 -172 -125 -278 q125 -92 125 -269q0 -196 -139.5 -301.5t-390.5 -105.5q-253 0 -392 110t-139 324v27h244v-27q0 -110 74 -166.5t213 -56.5q137 0 207.5 46.5t70.5 133.5q0 73 -45 106t-139 50l-254 45q-188 35 -281.5 116t-93.5 222zM354 547q0 -72 47 -109t138 -53l254 -45q39 -7 63 -14 q59 62 59 151q0 72 -47 109t-137 53l-254 47q-48 10 -63 14q-60 -63 -60 -153z" />
<glyph unicode="&#xa8;" horiz-adv-x="729" d="M41 1219v247h197v-247h-197zM461 1219v247h196v-247h-196z" />
<glyph unicode="&#xa9;" horiz-adv-x="1802" d="M164 717q0 221 91 388t258 258t388 91t388 -91t258 -258t91 -388t-91 -388t-258 -258t-388 -91t-388 91t-258 258t-91 388zM324 717q0 -270 157.5 -432t419.5 -162q263 0 421.5 162t158.5 432t-158.5 432t-421.5 162q-262 0 -419.5 -162t-157.5 -432zM555 592v252 q0 152 92.5 231.5t257.5 79.5q159 0 250.5 -78.5t91.5 -224.5v-12h-157v12q0 82 -48 124t-137 42q-192 0 -192 -174v-252q0 -174 188 -174q189 0 189 166v16h157v-16q0 -146 -92 -225.5t-254 -79.5t-254 80.5t-92 232.5z" />
<glyph unicode="&#xaa;" horiz-adv-x="757" d="M61 973q0 100 62 153.5t168 53.5q108 0 170 -56v93q0 92 -94 92q-93 0 -93 -78h-180q0 109 70.5 166t204.5 57q127 0 200.5 -63.5t73.5 -184.5v-272h90v-158h-227l-27 62q-62 -74 -188 -74q-106 0 -168 53.5t-62 155.5zM244 979q0 -70 108 -70q50 0 79.5 19t29.5 51 t-29.5 50t-79.5 18q-108 0 -108 -68z" />
<glyph unicode="&#xab;" horiz-adv-x="983" d="M41 430v205l451 315v-229l-261 -189l261 -186v-231zM471 430v205l451 315v-229l-260 -189l260 -186v-231z" />
<glyph unicode="&#xac;" horiz-adv-x="1048" d="M61 621v196h926v-569h-207v373h-719z" />
<glyph unicode="&#xad;" horiz-adv-x="565" d="M61 430v197h443v-197h-443z" />
<glyph unicode="&#xae;" horiz-adv-x="749" d="M61 1120q0 142 85.5 228t228.5 86q142 0 227.5 -85.5t85.5 -228.5q0 -142 -85 -227.5t-228 -85.5t-228.5 85.5t-85.5 227.5zM131 1120q0 -114 67 -182t177 -68t176.5 68t66.5 182q0 115 -66 182.5t-177 67.5t-177.5 -67.5t-66.5 -182.5zM236 940v360h163q123 0 123 -118 q0 -93 -71 -115l67 -127h-90l-61 121h-52v-121h-79zM315 1133h80q47 0 47 49t-47 49h-80v-98z" />
<glyph unicode="&#xaf;" horiz-adv-x="659" d="M41 1243v166h577v-166h-577z" />
<glyph unicode="&#xb0;" horiz-adv-x="692" d="M47 1155q0 132 83.5 215.5t215.5 83.5t215.5 -83.5t83.5 -215.5t-83.5 -215.5t-215.5 -83.5t-215.5 83.5t-83.5 215.5zM197 1155q0 -68 41 -109.5t108 -41.5q66 0 108 42t42 109t-42 108.5t-108 41.5q-67 0 -108 -41t-41 -109z" />
<glyph unicode="&#xb1;" horiz-adv-x="1048" d="M61 0v197h926v-197h-926zM61 713v196h359v375h207v-375h360v-196h-360v-373h-207v373h-359z" />
<glyph unicode="&#xb2;" horiz-adv-x="784" d="M113 680v156l309 270q55 44 55 98q0 39 -25 61.5t-67 22.5q-38 0 -64.5 -22.5t-29.5 -67.5v-33h-178v269h139l20 -50q66 60 160 60q105 0 164 -58t59 -167q0 -136 -153 -246l-156 -137h307v-156h-540z" />
<glyph unicode="&#xb3;" horiz-adv-x="804" d="M129 887v45h172v-23q0 -40 25 -62t71 -22q44 0 68 22.5t24 59.5q0 84 -96 84h-28v131h28q47 0 69.5 23t22.5 61t-23.5 60t-66.5 22q-41 0 -66.5 -24.5t-27.5 -61.5v-20h-172v254h137l19 -50q66 60 166 60q96 0 157.5 -57.5t61.5 -157.5q0 -126 -111 -174 q113 -49 113 -172q0 -96 -71 -155.5t-198 -59.5q-129 0 -201.5 59.5t-72.5 157.5z" />
<glyph unicode="&#xb4;" horiz-adv-x="507" d="M41 1188l188 328h238l-246 -328h-180z" />
<glyph unicode="&#xb6;" horiz-adv-x="1150" d="M51 1090q0 176 94 260t263 84h610v-1434h-213v1223h-111v-1223h-211v741h-75q-169 0 -263 86t-94 263z" />
<glyph unicode="&#xb7;" horiz-adv-x="524" d="M133 571v293h258v-293h-258z" />
<glyph unicode="&#xb8;" horiz-adv-x="466" d="M41 -184l37 106q158 21 253 -20.5t95 -147.5q0 -70 -46 -113t-122.5 -55.5t-179.5 0.5l-37 115q60 -3 102.5 -0.5t66 16.5t23.5 41q0 39 -47.5 51t-144.5 7z" />
<glyph unicode="&#xb9;" horiz-adv-x="608" d="M92 680v156h148v417l-148 -106v180l148 107h180v-598h137v-156h-465z" />
<glyph unicode="&#xba;" horiz-adv-x="733" d="M78 1028v162q0 128 77 196t212 68t212.5 -68t77.5 -196v-162q0 -129 -77.5 -196.5t-212.5 -67.5t-212 67.5t-77 196.5zM258 1020q0 -49 29 -74.5t80 -25.5q52 0 81 25.5t29 74.5v180q0 47 -29.5 72.5t-80.5 25.5q-50 0 -79.5 -25.5t-29.5 -72.5v-180z" />
<glyph unicode="&#xbb;" horiz-adv-x="983" d="M61 115v229l261 188l-261 187v231l451 -315v-205zM492 115v229l260 188l-260 187v231l450 -315v-205z" />
<glyph unicode="&#xbc;" horiz-adv-x="1646" d="M154 680v156h147v417l-147 -106v180l147 107h178v-598h139v-156h-464zM225 0l987 1434h201l-985 -1434h-203zM956 209v156l195 389h186l-202 -389h106v88l176 30v-118h117v-156h-117v-70h86v-139h-346v139h84v70h-285z" />
<glyph unicode="&#xbd;" horiz-adv-x="1671" d="M154 680v156h147v417l-147 -106v180l147 107h178v-598h139v-156h-464zM225 0l987 1434h201l-985 -1434h-203zM1008 0v156l309 270q55 46 55 98q0 39 -25.5 61.5t-68.5 22.5q-37 0 -63 -22.5t-29 -67.5v-33h-178v269h137l22 -49q64 59 160 59q105 0 163 -58t58 -167 q0 -138 -153 -246l-156 -137h309v-156h-540z" />
<glyph unicode="&#xbe;" horiz-adv-x="1685" d="M129 887v45h172v-23q0 -40 25 -62t71 -22q44 0 68 22.5t24 59.5q0 84 -96 84h-28v131h28q47 0 69.5 23t22.5 61t-23.5 60t-66.5 22q-41 0 -66.5 -24.5t-27.5 -61.5v-20h-172v254h137l19 -50q66 60 166 60q96 0 157.5 -57.5t61.5 -157.5q0 -126 -111 -174 q113 -49 113 -172q0 -96 -71 -155.5t-198 -59.5q-129 0 -201.5 59.5t-72.5 157.5zM264 0l985 1434h203l-987 -1434h-201zM993 209v156l195 389h186l-200 -389h104v88l178 30v-118h117v-156h-117v-70h84v-139h-346v139h84v70h-285z" />
<glyph unicode="&#xbf;" horiz-adv-x="1294" d="M133 29q0 168 108 275t294 132v205h227v-391h-115q-132 0 -209.5 -60t-77.5 -161t77.5 -161.5t209.5 -60.5q133 0 210 60t77 162v43h227v-43q0 -192 -139 -305t-375 -113t-375 113t-139 305zM535 801v264h227v-264h-227z" />
<glyph unicode="&#xc0;" horiz-adv-x="1523" d="M10 0v213h166l440 1221h302l440 -1221h155v-213h-571v213h158l-78 209h-533l-77 -209h170v-213h-572zM492 1812h251l179 -296h-195zM557 635h397l-198 553z" />
<glyph unicode="&#xc1;" horiz-adv-x="1523" d="M10 0v213h166l440 1221h302l440 -1221h155v-213h-571v213h158l-78 209h-533l-77 -209h170v-213h-572zM557 635h397l-198 553zM614 1516l179 296h254l-238 -296h-195z" />
<glyph unicode="&#xc2;" horiz-adv-x="1523" d="M10 0v213h166l440 1221h302l440 -1221h155v-213h-571v213h158l-78 209h-533l-77 -209h170v-213h-572zM428 1516l213 296h254l213 -296h-211l-131 167l-133 -167h-205zM557 635h397l-198 553z" />
<glyph unicode="&#xc3;" horiz-adv-x="1523" d="M10 0v213h166l440 1221h302l440 -1221h155v-213h-571v213h158l-78 209h-533l-77 -209h170v-213h-572zM373 1597q65 129 124.5 177.5t123.5 48.5q43 0 91.5 -22.5t83 -49.5t69.5 -49.5t55 -22.5q23 0 49 28t67 101l125 -75q-65 -128 -125 -177t-123 -49q-42 0 -90.5 23 t-83 50t-70 50t-55.5 23q-22 0 -48 -29t-68 -102zM557 635h397l-198 553z" />
<glyph unicode="&#xc4;" horiz-adv-x="1523" d="M10 0v213h166l440 1221h302l440 -1221h155v-213h-571v213h158l-78 209h-533l-77 -209h170v-213h-572zM432 1538v250h197v-250h-197zM557 635h397l-198 553zM903 1538v250h197v-250h-197z" />
<glyph unicode="&#xc5;" horiz-adv-x="1523" d="M10 0v213h166l440 1221h302l440 -1221h155v-213h-571v213h158l-78 209h-533l-77 -209h170v-213h-572zM543 1673q0 92 62 149.5t161 57.5q100 0 161.5 -57.5t61.5 -149.5t-61.5 -149.5t-161.5 -57.5q-99 0 -161 57.5t-62 149.5zM557 635h397l-198 553zM682 1673 q0 -46 21.5 -71t62.5 -25q84 0 84 96t-84 96q-41 0 -62.5 -25.5t-21.5 -70.5z" />
<glyph unicode="&#xc6;" horiz-adv-x="2115" d="M0 0v213h164l653 1010h-174v211h1391v-435h-244v224h-475v-400h493v-211h-493v-399h475v223h244v-436h-1141v213h178v209h-496l-143 -209h139v-213h-571zM686 635h385v604z" />
<glyph unicode="&#xc7;" horiz-adv-x="1325" d="M113 498v440q0 240 141.5 378t384.5 138q241 0 367 -145l32 125h191v-486h-244v8q0 137 -82.5 212t-226.5 75q-151 0 -235.5 -79.5t-84.5 -225.5v-440q0 -147 84 -226t232 -79t230.5 73.5t82.5 210.5v10h244v-10q0 -240 -148.5 -368.5t-408.5 -128.5q-261 0 -410 134 t-149 384zM485 -184l37 106q158 21 253 -20.5t95 -147.5q0 -70 -46 -113t-122.5 -55.5t-179.5 0.5l-37 115q98 -5 145.5 6.5t47.5 50.5t-48 51t-145 7z" />
<glyph unicode="&#xc8;" horiz-adv-x="1314" d="M92 0v213h180v1010h-180v211h1141v-435h-242v224h-475v-400h492v-211h-492v-399h475v223h242v-436h-1141zM408 1812h251l179 -296h-195z" />
<glyph unicode="&#xc9;" horiz-adv-x="1314" d="M92 0v213h180v1010h-180v211h1141v-435h-242v224h-475v-400h492v-211h-492v-399h475v223h242v-436h-1141zM528 1516l179 296h254l-238 -296h-195z" />
<glyph unicode="&#xca;" horiz-adv-x="1314" d="M92 0v213h180v1010h-180v211h1141v-435h-242v224h-475v-400h492v-211h-492v-399h475v223h242v-436h-1141zM342 1516l213 296h254l213 -296h-211l-131 167l-133 -167h-205z" />
<glyph unicode="&#xcb;" horiz-adv-x="1314" d="M92 0v213h180v1010h-180v211h1141v-435h-242v224h-475v-400h492v-211h-492v-399h475v223h242v-436h-1141zM348 1538v250h197v-250h-197zM819 1538v250h197v-250h-197z" />
<glyph unicode="&#xcc;" horiz-adv-x="786" d="M76 1812h252l178 -296h-195zM92 0v213h180v1010h-180v211h602v-211h-178v-1010h178v-213h-602z" />
<glyph unicode="&#xcd;" horiz-adv-x="786" d="M92 0v213h180v1010h-180v211h602v-211h-178v-1010h178v-213h-602zM279 1516l178 296h254l-238 -296h-194z" />
<glyph unicode="&#xce;" horiz-adv-x="786" d="M51 1516l213 296h254l213 -296h-211l-131 167l-133 -167h-205zM92 0v213h180v1010h-180v211h602v-211h-178v-1010h178v-213h-602z" />
<glyph unicode="&#xcf;" horiz-adv-x="786" d="M92 0v213h180v1010h-180v211h602v-211h-178v-1010h178v-213h-602zM104 1538v250h197v-250h-197zM483 1538v250h197v-250h-197z" />
<glyph unicode="&#xd0;" horiz-adv-x="1433" d="M92 0v213h180v422h-135v166h135v422h-180v211h662q262 0 411.5 -133t149.5 -381v-406q0 -248 -149.5 -381t-413.5 -133h-660zM516 213h234q151 0 236 77.5t85 223.5v406q0 146 -84.5 224.5t-234.5 78.5h-236v-422h270v-166h-270v-422z" />
<glyph unicode="&#xd1;" horiz-adv-x="1587" d="M92 0v213h180v1010h-180v211h408l635 -988v777h-181v211h602v-211h-178v-1223h-229l-633 987v-774h178v-213h-602zM430 1597q65 129 124.5 177.5t123.5 48.5q43 0 91.5 -22.5t83 -49.5t69.5 -49.5t55 -22.5q23 0 49.5 28.5t67.5 100.5l125 -75q-65 -128 -125 -177 t-123 -49q-42 0 -90.5 23t-83 50t-70 50t-55.5 23q-22 0 -48.5 -29t-68.5 -102z" />
<glyph unicode="&#xd2;" horiz-adv-x="1351" d="M113 498v440q0 248 150.5 382t414.5 134q261 0 411 -134t150 -382v-440q0 -250 -150.5 -384t-414.5 -134q-261 0 -411 134t-150 384zM356 498q0 -147 84.5 -226t233.5 -79q151 0 236 79t85 226v440q0 146 -84.5 225.5t-232.5 79.5q-151 0 -236.5 -79.5t-85.5 -225.5v-440 zM393 1812h252l178 -296h-194z" />
<glyph unicode="&#xd3;" horiz-adv-x="1351" d="M113 498v440q0 248 150.5 382t414.5 134q261 0 411 -134t150 -382v-440q0 -250 -150.5 -384t-414.5 -134q-261 0 -411 134t-150 384zM356 498q0 -147 84.5 -226t233.5 -79q151 0 236 79t85 226v440q0 146 -84.5 225.5t-232.5 79.5q-151 0 -236.5 -79.5t-85.5 -225.5v-440 zM516 1516l178 296h254l-237 -296h-195z" />
<glyph unicode="&#xd4;" horiz-adv-x="1351" d="M113 498v440q0 248 150.5 382t414.5 134q261 0 411 -134t150 -382v-440q0 -250 -150.5 -384t-414.5 -134q-261 0 -411 134t-150 384zM330 1516l213 296h254l213 -296h-211l-131 167l-133 -167h-205zM356 498q0 -147 84.5 -226t233.5 -79q151 0 236 79t85 226v440 q0 146 -84.5 225.5t-232.5 79.5q-151 0 -236.5 -79.5t-85.5 -225.5v-440z" />
<glyph unicode="&#xd5;" horiz-adv-x="1351" d="M113 498v440q0 248 150.5 382t414.5 134q261 0 411 -134t150 -382v-440q0 -250 -150.5 -384t-414.5 -134q-261 0 -411 134t-150 384zM281 1597q65 130 124 178t123 48q43 0 91.5 -22.5t83 -49.5t69.5 -49.5t55 -22.5q23 0 49.5 28.5t67.5 100.5l125 -75 q-65 -128 -125 -177t-123 -49q-42 0 -90.5 23t-83 50t-70 50t-55.5 23q-22 0 -48 -29t-68 -102zM356 498q0 -147 84.5 -226t233.5 -79q151 0 236 79t85 226v440q0 146 -84.5 225.5t-232.5 79.5q-151 0 -236.5 -79.5t-85.5 -225.5v-440z" />
<glyph unicode="&#xd6;" horiz-adv-x="1351" d="M113 498v440q0 248 150.5 382t414.5 134q261 0 411 -134t150 -382v-440q0 -250 -150.5 -384t-414.5 -134q-261 0 -411 134t-150 384zM336 1538v250h196v-250h-196zM356 498q0 -147 84.5 -226t233.5 -79q151 0 236 79t85 226v440q0 146 -84.5 225.5t-232.5 79.5 q-151 0 -236.5 -79.5t-85.5 -225.5v-440zM807 1538v250h197v-250h-197z" />
<glyph unicode="&#xd7;" horiz-adv-x="1048" d="M76 414l307 305l-301 301l139 139l301 -299l307 307l142 -139l-309 -309l301 -301l-140 -139l-301 303l-307 -308z" />
<glyph unicode="&#xd8;" horiz-adv-x="1351" d="M94 -106l142 245q-123 132 -123 359v440q0 248 150.5 382t414.5 134q166 0 285 -55l135 233l157 -90l-143 -246q127 -133 127 -358v-440q0 -250 -150.5 -384t-414.5 -134q-167 0 -289 55l-133 -234zM356 498q0 -64 19 -119l477 825q-76 39 -174 39q-151 0 -236.5 -79.5 t-85.5 -225.5v-440zM498 229q71 -36 176 -36q151 0 236 79t85 226v440q0 66 -18 121z" />
<glyph unicode="&#xd9;" horiz-adv-x="1525" d="M31 1223v211h602v-211h-178v-736q0 -143 81 -218.5t226 -75.5q147 0 228 75.5t81 218.5v736h-178v211h602v-211h-180v-736q0 -245 -147 -376t-406 -131q-258 0 -404.5 131t-146.5 376v736h-180zM485 1812h252l178 -296h-194z" />
<glyph unicode="&#xda;" horiz-adv-x="1525" d="M31 1223v211h602v-211h-178v-736q0 -143 81 -218.5t226 -75.5q147 0 228 75.5t81 218.5v736h-178v211h602v-211h-180v-736q0 -245 -147 -376t-406 -131q-258 0 -404.5 131t-146.5 376v736h-180zM608 1516l178 296h254l-237 -296h-195z" />
<glyph unicode="&#xdb;" horiz-adv-x="1525" d="M31 1223v211h602v-211h-178v-736q0 -143 81 -218.5t226 -75.5q147 0 228 75.5t81 218.5v736h-178v211h602v-211h-180v-736q0 -245 -147 -376t-406 -131q-258 0 -404.5 131t-146.5 376v736h-180zM422 1516l213 296h254l213 -296h-211l-131 167l-133 -167h-205z" />
<glyph unicode="&#xdc;" horiz-adv-x="1525" d="M31 1223v211h602v-211h-178v-736q0 -143 81 -218.5t226 -75.5q147 0 228 75.5t81 218.5v736h-178v211h602v-211h-180v-736q0 -245 -147 -376t-406 -131q-258 0 -404.5 131t-146.5 376v736h-180zM428 1538v250h197v-250h-197zM899 1538v250h197v-250h-197z" />
<glyph unicode="&#xdd;" horiz-adv-x="1417" d="M0 1223v211h586v-211h-146l283 -467l283 467h-177v211h588v-211h-153l-433 -697v-313h220v-213h-684v213h221v313l-434 697h-154zM555 1516l178 296h254l-237 -296h-195z" />
<glyph unicode="&#xde;" horiz-adv-x="1361" d="M92 0v213h180v1010h-180v211h424v-256h320q224 0 349.5 -113t125.5 -348t-125 -349t-350 -114h-320v-254h-424zM516 467h311q232 0 232 250t-232 250h-311v-500z" />
<glyph unicode="&#xdf;" horiz-adv-x="1409" d="M41 0v197h180v927q0 190 139.5 301t372.5 111q230 0 370 -105.5t140 -281.5q0 -106 -50 -189t-142 -133q131 -53 201.5 -161t70.5 -267q0 -207 -110.5 -313t-292.5 -106q-188 0 -276.5 100.5t-88.5 275.5v23h213v-8q0 -91 41.5 -143t108.5 -52q82 0 130 61t48 177 q0 146 -87.5 224.5t-238.5 78.5h-51v196h20q126 3 201.5 60t75.5 153q0 97 -76.5 155t-206.5 58q-129 0 -206.5 -64t-77.5 -175v-1100h-408z" />
<glyph unicode="&#xe0;" horiz-adv-x="1163" d="M72 305q0 159 100.5 241.5t278.5 82.5q187 0 290 -92v168q0 88 -52 136t-144 48q-101 0 -148 -38t-47 -122h-227q0 171 108.5 258.5t313.5 87.5q198 0 311 -98t113 -285v-495h164v-197h-338l-31 104q-100 -124 -315 -124q-176 0 -276.5 82.5t-100.5 242.5zM248 1516h237 l189 -328h-180zM299 311q0 -135 217 -135q104 0 164.5 34.5t60.5 100.5t-61 102t-164 36q-217 0 -217 -138z" />
<glyph unicode="&#xe1;" horiz-adv-x="1163" d="M72 305q0 159 100.5 241.5t278.5 82.5q187 0 290 -92v168q0 88 -52 136t-144 48q-101 0 -148 -38t-47 -122h-227q0 171 108.5 258.5t313.5 87.5q198 0 311 -98t113 -285v-495h164v-197h-338l-31 104q-100 -124 -315 -124q-176 0 -276.5 82.5t-100.5 242.5zM299 311 q0 -135 217 -135q104 0 164.5 34.5t60.5 100.5t-61 102t-164 36q-217 0 -217 -138zM412 1188l188 328h238l-246 -328h-180z" />
<glyph unicode="&#xe2;" horiz-adv-x="1163" d="M72 305q0 159 100.5 241.5t278.5 82.5q187 0 290 -92v168q0 88 -52 136t-144 48q-101 0 -148 -38t-47 -122h-227q0 171 108.5 258.5t313.5 87.5q198 0 311 -98t113 -285v-495h164v-197h-338l-31 104q-100 -124 -315 -124q-176 0 -276.5 82.5t-100.5 242.5zM223 1188 l207 328h225l207 -328h-211l-110 174l-113 -174h-205zM299 311q0 -135 217 -135q104 0 164.5 34.5t60.5 100.5t-61 102t-164 36q-217 0 -217 -138z" />
<glyph unicode="&#xe3;" horiz-adv-x="1163" d="M72 305q0 159 100.5 241.5t278.5 82.5q187 0 290 -92v168q0 88 -52 136t-144 48q-101 0 -148 -38t-47 -122h-227q0 171 108.5 258.5t313.5 87.5q198 0 311 -98t113 -285v-495h164v-197h-338l-31 104q-100 -124 -315 -124q-176 0 -276.5 82.5t-100.5 242.5zM176 1305 q65 130 123.5 177.5t122.5 47.5q42 0 85 -22.5t70.5 -49.5t56 -49.5t46.5 -22.5q21 0 46 28.5t67 101.5l125 -76q-66 -129 -123.5 -177.5t-120.5 -48.5q-43 0 -86 23t-71 50t-56.5 50t-46.5 23q-21 0 -46 -28.5t-67 -102.5zM299 311q0 -135 217 -135q104 0 164.5 34.5 t60.5 100.5t-61 102t-164 36q-217 0 -217 -138z" />
<glyph unicode="&#xe4;" horiz-adv-x="1163" d="M72 305q0 159 100.5 241.5t278.5 82.5q187 0 290 -92v168q0 88 -52 136t-144 48q-101 0 -148 -38t-47 -122h-227q0 171 108.5 258.5t313.5 87.5q198 0 311 -98t113 -285v-495h164v-197h-338l-31 104q-100 -124 -315 -124q-176 0 -276.5 82.5t-100.5 242.5zM233 1219v247 h197v-247h-197zM299 311q0 -135 217 -135q104 0 164.5 34.5t60.5 100.5t-61 102t-164 36q-217 0 -217 -138zM653 1219v247h197v-247h-197z" />
<glyph unicode="&#xe5;" horiz-adv-x="1163" d="M72 305q0 159 100.5 241.5t278.5 82.5q187 0 290 -92v168q0 88 -52 136t-144 48q-101 0 -148 -38t-47 -122h-227q0 171 108.5 258.5t313.5 87.5q198 0 311 -98t113 -285v-495h164v-197h-338l-31 104q-100 -124 -315 -124q-176 0 -276.5 82.5t-100.5 242.5zM299 311 q0 -135 217 -135q104 0 164.5 34.5t60.5 100.5t-61 102t-164 36q-217 0 -217 -138zM317 1339q0 92 62.5 149.5t161.5 57.5q100 0 161.5 -57.5t61.5 -149.5t-61.5 -149t-161.5 -57q-99 0 -161.5 57t-62.5 149zM457 1339q0 -45 21.5 -70.5t62.5 -25.5q84 0 84 96q0 97 -84 97 q-41 0 -62.5 -25.5t-21.5 -71.5z" />
<glyph unicode="&#xe6;" horiz-adv-x="1742" d="M72 305q0 159 100.5 241.5t278.5 82.5q181 0 290 -92v168q0 88 -52 136t-144 48q-101 0 -148 -38t-47 -122h-227q0 171 108.5 258.5t313.5 87.5q227 0 319 -145q112 145 350 145q197 0 310.5 -104.5t113.5 -302.5v-211h-669v-82q0 -97 59 -148t164 -51q101 0 154 43.5 t63 116.5h227q-15 -172 -127.5 -264t-294.5 -92q-249 0 -358 155q-112 -155 -383 -155q-187 0 -294 82.5t-107 242.5zM299 311q0 -135 217 -135q104 0 164.5 34.5t60.5 100.5t-61 102t-164 36q-217 0 -217 -138zM969 631h442v51q0 97 -59 147t-162 50t-162 -50t-59 -147v-51 z" />
<glyph unicode="&#xe7;" horiz-adv-x="1087" d="M104 389v277q0 197 112.5 303t303.5 106q188 0 279 -117l28 97h174v-379h-227v14q-3 93 -60.5 141t-158.5 48q-104 0 -162.5 -50.5t-58.5 -146.5v-307q0 -97 58.5 -148t162.5 -51t161.5 48t57.5 138v17h227v-2q0 -191 -119.5 -294t-326.5 -103q-210 0 -330.5 106 t-120.5 303zM383 -184l37 106q158 21 253 -20.5t95 -147.5q0 -70 -46 -113t-122.5 -55.5t-179.5 0.5l-37 115q60 -3 102.5 -0.5t66 16.5t23.5 41q0 39 -47.5 51t-144.5 7z" />
<glyph unicode="&#xe8;" d="M104 389v279q0 198 121 302.5t330 104.5q207 0 326.5 -104.5t119.5 -302.5v-211h-667v-82q0 -93 57.5 -146t163.5 -53q196 0 217 160h229q-15 -173 -132 -264.5t-314 -91.5q-208 0 -329.5 106t-121.5 303zM258 1516h238l188 -328h-180zM334 631h440v51q0 97 -58 147 t-161 50t-162 -50t-59 -147v-51z" />
<glyph unicode="&#xe9;" d="M104 389v279q0 198 121 302.5t330 104.5q207 0 326.5 -104.5t119.5 -302.5v-211h-667v-82q0 -93 57.5 -146t163.5 -53q196 0 217 160h229q-15 -173 -132 -264.5t-314 -91.5q-208 0 -329.5 106t-121.5 303zM334 631h440v51q0 97 -58 147t-161 50t-162 -50t-59 -147v-51z M422 1188l188 328h238l-246 -328h-180z" />
<glyph unicode="&#xea;" d="M104 389v279q0 198 121 302.5t330 104.5q207 0 326.5 -104.5t119.5 -302.5v-211h-667v-82q0 -93 57.5 -146t163.5 -53q196 0 217 160h229q-15 -173 -132 -264.5t-314 -91.5q-208 0 -329.5 106t-121.5 303zM233 1188l207 328h226l206 -328h-210l-111 174l-113 -174h-205z M334 631h440v51q0 97 -58 147t-161 50t-162 -50t-59 -147v-51z" />
<glyph unicode="&#xeb;" d="M104 389v279q0 198 121 302.5t330 104.5q207 0 326.5 -104.5t119.5 -302.5v-211h-667v-82q0 -93 57.5 -146t163.5 -53q196 0 217 160h229q-15 -173 -132 -264.5t-314 -91.5q-208 0 -329.5 106t-121.5 303zM244 1219v247h196v-247h-196zM334 631h440v51q0 97 -58 147 t-161 50t-162 -50t-59 -147v-51zM664 1219v247h196v-247h-196z" />
<glyph unicode="&#xec;" horiz-adv-x="739" d="M45 1516h238l188 -328h-180zM92 0v197h180v661h-180v197h408v-858h178v-197h-586z" />
<glyph unicode="&#xed;" horiz-adv-x="739" d="M92 0v197h180v661h-180v197h408v-858h178v-197h-586zM250 1188l188 328h238l-246 -328h-180z" />
<glyph unicode="&#xee;" horiz-adv-x="739" d="M41 1188l207 328h225l207 -328h-211l-111 174l-112 -174h-205zM92 0v197h180v661h-180v197h408v-858h178v-197h-586z" />
<glyph unicode="&#xef;" horiz-adv-x="739" d="M92 0v197h180v661h-180v197h408v-858h178v-197h-586zM94 1219v247h197v-247h-197zM432 1219v247h197v-247h-197z" />
<glyph unicode="&#xf0;" d="M104 387v199q0 197 102 302t273 105q138 0 230 -57q-61 128 -166 227l-264 -106l-54 141l181 72q-91 58 -197 96l72 170q190 -67 335 -182l261 104l53 -139l-193 -78q264 -289 264 -727v-127q0 -198 -119.5 -302.5t-328.5 -104.5q-208 0 -328.5 104.5t-120.5 302.5z M334 373q0 -97 59 -147t160 -50q103 0 162 50.5t59 146.5v215q0 103 -57 156t-162 53q-103 0 -162 -50t-59 -147v-227z" />
<glyph unicode="&#xf1;" horiz-adv-x="1378" d="M92 0v197h180v661h-180v197h354l31 -107q106 127 307 127q179 0 282 -102.5t103 -300.5v-475h179v-197h-406v688q0 96 -57 143.5t-160 47.5t-164 -50t-61 -147v-485h178v-197h-586zM348 1305q65 130 123.5 177.5t122.5 47.5q42 0 85 -22.5t70.5 -49.5t56 -49.5 t46.5 -22.5q21 0 46 28.5t67 101.5l125 -76q-66 -129 -123.5 -177.5t-120.5 -48.5q-43 0 -86 23t-71 50t-56.5 50t-46.5 23q-21 0 -46 -28.5t-67 -102.5z" />
<glyph unicode="&#xf2;" d="M104 387v281q0 198 121 302.5t330 104.5q207 0 326.5 -104.5t119.5 -302.5v-281q0 -198 -119.5 -302.5t-328.5 -104.5q-208 0 -328.5 104.5t-120.5 302.5zM258 1516h238l188 -328h-180zM334 373q0 -97 59 -147t160 -50q104 0 162.5 50t58.5 147v309q0 97 -58 147t-161 50 t-162 -50t-59 -147v-309z" />
<glyph unicode="&#xf3;" d="M104 387v281q0 198 121 302.5t330 104.5q207 0 326.5 -104.5t119.5 -302.5v-281q0 -198 -119.5 -302.5t-328.5 -104.5q-208 0 -328.5 104.5t-120.5 302.5zM334 373q0 -97 59 -147t160 -50q104 0 162.5 50t58.5 147v309q0 97 -58 147t-161 50t-162 -50t-59 -147v-309z M422 1188l188 328h238l-246 -328h-180z" />
<glyph unicode="&#xf4;" d="M104 387v281q0 198 121 302.5t330 104.5q207 0 326.5 -104.5t119.5 -302.5v-281q0 -198 -119.5 -302.5t-328.5 -104.5q-208 0 -328.5 104.5t-120.5 302.5zM233 1188l207 328h226l206 -328h-210l-111 174l-113 -174h-205zM334 373q0 -97 59 -147t160 -50q104 0 162.5 50 t58.5 147v309q0 97 -58 147t-161 50t-162 -50t-59 -147v-309z" />
<glyph unicode="&#xf5;" d="M104 387v281q0 198 121 302.5t330 104.5q207 0 326.5 -104.5t119.5 -302.5v-281q0 -198 -119.5 -302.5t-328.5 -104.5q-208 0 -328.5 104.5t-120.5 302.5zM182 1305q65 130 123.5 177.5t122.5 47.5q42 0 85 -22.5t70.5 -49.5t56 -49.5t46.5 -22.5q21 0 46 28.5t67 101.5 l125 -76q-66 -129 -123.5 -177.5t-120.5 -48.5q-43 0 -86 23t-71 50t-56.5 50t-46.5 23q-21 0 -46 -28.5t-67 -102.5zM334 373q0 -97 59 -147t160 -50q104 0 162.5 50t58.5 147v309q0 97 -58 147t-161 50t-162 -50t-59 -147v-309z" />
<glyph unicode="&#xf6;" d="M104 387v281q0 198 121 302.5t330 104.5q207 0 326.5 -104.5t119.5 -302.5v-281q0 -198 -119.5 -302.5t-328.5 -104.5q-208 0 -328.5 104.5t-120.5 302.5zM244 1219v247h196v-247h-196zM334 373q0 -97 59 -147t160 -50q104 0 162.5 50t58.5 147v309q0 97 -58 147t-161 50 t-162 -50t-59 -147v-309zM664 1219v247h196v-247h-196z" />
<glyph unicode="&#xf7;" horiz-adv-x="1048" d="M61 621v196h926v-196h-926zM395 111v292h260v-292h-260zM395 1032v295h260v-295h-260z" />
<glyph unicode="&#xf8;" d="M104 387v281q0 198 121 302.5t330 104.5q116 0 209 -35l94 164l131 -76l-96 -167q108 -105 108 -293v-281q0 -198 -119.5 -302.5t-328.5 -104.5q-111 0 -209 32l-92 -159l-131 73l94 166q-111 105 -111 295zM334 373q0 -40 8 -64l317 551q-49 19 -104 19q-103 0 -162 -50 t-59 -147v-309zM449 193q41 -17 104 -17q104 0 162.5 50t58.5 147v309q0 37 -8 61z" />
<glyph unicode="&#xf9;" horiz-adv-x="1333" d="M31 858v197h407v-688q0 -96 57 -143.5t160 -47.5t164.5 50.5t61.5 146.5v485h-181v197h408v-858h178v-197h-354l-31 106q-105 -126 -305 -126q-179 0 -282 102.5t-103 300.5v475h-180zM424 1516h238l188 -328h-180z" />
<glyph unicode="&#xfa;" horiz-adv-x="1333" d="M31 858v197h407v-688q0 -96 57 -143.5t160 -47.5t164.5 50.5t61.5 146.5v485h-181v197h408v-858h178v-197h-354l-31 106q-105 -126 -305 -126q-179 0 -282 102.5t-103 300.5v475h-180zM465 1188l188 328h238l-246 -328h-180z" />
<glyph unicode="&#xfb;" horiz-adv-x="1333" d="M31 858v197h407v-688q0 -96 57 -143.5t160 -47.5t164.5 50.5t61.5 146.5v485h-181v197h408v-858h178v-197h-354l-31 106q-105 -126 -305 -126q-179 0 -282 102.5t-103 300.5v475h-180zM338 1188l207 328h225l207 -328h-211l-111 174l-112 -174h-205z" />
<glyph unicode="&#xfc;" horiz-adv-x="1333" d="M31 858v197h407v-688q0 -96 57 -143.5t160 -47.5t164.5 50.5t61.5 146.5v485h-181v197h408v-858h178v-197h-354l-31 106q-105 -126 -305 -126q-179 0 -282 102.5t-103 300.5v475h-180zM348 1219v247h197v-247h-197zM768 1219v247h197v-247h-197z" />
<glyph unicode="&#xfd;" horiz-adv-x="1318" d="M27 858v197h544v-197h-155l252 -653l254 653h-158v197h530v-197h-149l-428 -1071h145v-197h-561v197h209l86 213h-80l-340 858h-149zM528 1188l189 328h237l-245 -328h-181z" />
<glyph unicode="&#xfe;" horiz-adv-x="1273" d="M92 -213h180v1532h-180v197h408v-545q101 104 284 104q180 0 282.5 -105t102.5 -302v-281q0 -197 -103 -302t-284 -105t-282 98v-291h178v-197h-586v197zM500 377q0 -96 60.5 -148.5t162.5 -52.5q103 0 161 51t58 146v309q0 95 -58 146t-159 51q-103 0 -164 -52.5 t-61 -148.5v-301z" />
<glyph unicode="&#xff;" horiz-adv-x="1318" d="M27 858v197h544v-197h-155l252 -653l254 653h-158v197h530v-197h-149l-428 -1071h145v-197h-561v197h209l86 213h-80l-340 858h-149zM350 1219v247h197v-247h-197zM770 1219v247h197v-247h-197z" />
<glyph unicode="&#x152;" horiz-adv-x="2070" d="M113 498v440q0 246 148 381t394 135q207 0 340 -115v95h963v-435h-244v224h-475v-400h494v-211h-494v-399h475v223h244v-436h-963v94q-132 -114 -344 -114q-243 0 -390.5 135.5t-147.5 382.5zM356 498q0 -147 84.5 -226t233.5 -79q151 0 236 79t85 226v440 q0 146 -84.5 225.5t-232.5 79.5q-151 0 -236.5 -79.5t-85.5 -225.5v-440z" />
<glyph unicode="&#x153;" horiz-adv-x="1775" d="M104 387v281q0 198 117 302.5t318 104.5q238 0 350 -145q112 145 352 145q200 0 315 -104.5t115 -302.5v-211h-670v-82q0 -96 59.5 -147.5t164.5 -51.5q99 0 155 43.5t62 122.5h227q-9 -175 -122.5 -268.5t-305.5 -93.5q-237 0 -352 145q-109 -145 -352 -145 q-200 0 -316.5 104.5t-116.5 302.5zM334 373q0 -97 59 -147t160 -50q104 0 162.5 50t58.5 147v309q0 97 -58 147t-161 50t-162 -50t-59 -147v-309zM1001 631h443v51q0 97 -58 147t-161 50q-104 0 -164 -50t-60 -147v-51z" />
<glyph unicode="&#x178;" horiz-adv-x="1417" d="M0 1223v211h586v-211h-146l283 -467l283 467h-177v211h588v-211h-153l-433 -697v-313h220v-213h-684v213h221v313l-434 697h-154zM373 1538v250h196v-250h-196zM844 1538v250h196v-250h-196z" />
<glyph unicode="&#x2c6;" horiz-adv-x="720" d="M41 1188l207 328h225l207 -328h-211l-111 174l-112 -174h-205z" />
<glyph unicode="&#x2dc;" horiz-adv-x="823" d="M41 1305q65 130 123.5 177.5t122.5 47.5q42 0 85 -22.5t70.5 -49.5t56 -49.5t46.5 -22.5q21 0 45.5 28t66.5 102l125 -76q-66 -129 -123 -177.5t-120 -48.5q-43 0 -86 23t-71 50t-56.5 50t-46.5 23q-21 0 -46 -28.5t-67 -102.5z" />
<glyph unicode="&#x2000;" horiz-adv-x="940" />
<glyph unicode="&#x2001;" horiz-adv-x="1880" />
<glyph unicode="&#x2002;" horiz-adv-x="940" />
<glyph unicode="&#x2003;" horiz-adv-x="1880" />
<glyph unicode="&#x2004;" horiz-adv-x="626" />
<glyph unicode="&#x2005;" horiz-adv-x="470" />
<glyph unicode="&#x2006;" horiz-adv-x="313" />
<glyph unicode="&#x2007;" horiz-adv-x="313" />
<glyph unicode="&#x2008;" horiz-adv-x="235" />
<glyph unicode="&#x2009;" horiz-adv-x="376" />
<glyph unicode="&#x200a;" horiz-adv-x="104" />
<glyph unicode="&#x2010;" horiz-adv-x="565" d="M61 430v197h443v-197h-443z" />
<glyph unicode="&#x2011;" horiz-adv-x="565" d="M61 430v197h443v-197h-443z" />
<glyph unicode="&#x2012;" horiz-adv-x="565" d="M61 430v197h443v-197h-443z" />
<glyph unicode="&#x2013;" horiz-adv-x="1044" d="M10 430v197h1024v-197h-1024z" />
<glyph unicode="&#x2014;" horiz-adv-x="2068" d="M10 430v197h2048v-197h-2048z" />
<glyph unicode="&#x2018;" horiz-adv-x="524" d="M133 1122l92 529h166v-529h-258z" />
<glyph unicode="&#x2019;" horiz-adv-x="524" d="M133 1122v529h258l-92 -529h-166z" />
<glyph unicode="&#x201a;" horiz-adv-x="524" d="M133 -236v531h258l-92 -531h-166z" />
<glyph unicode="&#x201c;" horiz-adv-x="876" d="M133 1122l92 529h166v-529h-258zM483 1122l92 529h168v-529h-260z" />
<glyph unicode="&#x201d;" horiz-adv-x="876" d="M133 1122v529h258l-92 -529h-166zM483 1122v529h260l-92 -529h-168z" />
<glyph unicode="&#x201e;" horiz-adv-x="876" d="M133 -236v531h258l-92 -531h-166zM483 -236v531h260l-92 -531h-168z" />
<glyph unicode="&#x2022;" horiz-adv-x="692" d="M68 717q0 124 77.5 202t200.5 78q125 0 203 -78t78 -202q0 -123 -78.5 -201t-202.5 -78q-123 0 -200.5 78t-77.5 201z" />
<glyph unicode="&#x2026;" horiz-adv-x="1943" d="M133 0v295h258v-295h-258zM842 0v295h260v-295h-260zM1552 0v295h258v-295h-258z" />
<glyph unicode="&#x202f;" horiz-adv-x="376" />
<glyph unicode="&#x2039;" horiz-adv-x="552" d="M41 430v205l451 315v-229l-261 -189l261 -186v-231z" />
<glyph unicode="&#x203a;" horiz-adv-x="552" d="M47 115v229l258 188l-258 187v231l449 -315v-205z" />
<glyph unicode="&#x205f;" horiz-adv-x="470" />
<glyph unicode="&#x20ac;" horiz-adv-x="1396" d="M51 627v182h133v129q0 240 142 378t385 138q240 0 366 -145l33 125h190v-486h-243v8q0 137 -82.5 212t-226.5 75q-151 0 -235.5 -79.5t-84.5 -225.5v-129h430v-182h-430v-129q0 -147 83.5 -226t231.5 -79t231 73.5t83 210.5v10h243v-10q0 -240 -148.5 -368.5 t-408.5 -128.5q-261 0 -410 134t-149 384v129h-133z" />
<glyph unicode="&#x2122;" horiz-adv-x="1245" d="M47 1296v138h479v-138h-161v-399h-156v399h-162zM586 897v537h143l133 -217l133 217h144v-537h-148v285l-129 -209l-129 209v-285h-147z" />
<glyph unicode="&#x25fc;" horiz-adv-x="1054" d="M0 0v1055h1055v-1055h-1055z" />
</font>
</defs>
</svg>
