<?xml version="1.0" encoding="UTF-8" standalone="no"?>
<svg width="48px" height="47px" viewBox="0 0 48 47" version="1.1" xmlns="http://www.w3.org/2000/svg" xmlns:xlink="http://www.w3.org/1999/xlink">
    <!-- Generator: Sketch 41.2 (35397) - http://www.bohemiancoding.com/sketch -->
    <title>weather</title>
    <desc>Created with Sketch.</desc>
    <defs></defs>
    <g id="Page-1" stroke="none" stroke-width="1" fill="none" fill-rule="evenodd">
        <g id="weather" fill="#FFFFFF">
            <g id="Page-1">
                <g id="weather">
                    <path d="M18.0763667,11.1924138 C18.3936267,11.5108503 18.8326925,11.7074808 19.3173277,11.7074808 C20.2867549,11.7074808 21.0735126,10.9207232 21.0735126,9.95137441 C21.0735126,9.4666608 20.8768036,9.0276734 20.5583671,8.70923695 L18.2168396,6.36770941 C17.8995796,6.05044944 17.4605138,5.85374042 16.9758786,5.85374042 C16.0065298,5.85374042 15.2197722,6.64049807 15.2197722,7.60984687 C15.2197722,8.09456048 15.4164812,8.53354787 15.7349176,8.85198432 L18.0763667,11.1924138 Z M26.3419103,43.3177889 L14.6343511,43.3177889 C13.6650023,43.3177889 12.8782446,44.1033701 12.8782446,45.0739738 C12.8782446,46.0444207 13.6650023,46.8300018 14.6343511,46.8300018 L26.3418319,46.8300018 C27.3111807,46.8300018 28.0980168,46.0444207 28.0980168,45.0739738 C28.0980168,44.1032917 27.3112591,43.3177889 26.3419103,43.3177889 Z M28.6833595,7.0245042 C29.6527082,7.0245042 30.4395443,6.23774655 30.4395443,5.26839776 L30.4395443,1.75610644 C30.4395443,0.786757647 29.6527867,0 28.6833595,0 C27.7139322,0 26.927253,0.786757647 26.927253,1.75610644 L26.927253,5.26839776 C26.927253,6.23774655 27.7140107,7.0245042 28.6833595,7.0245042 Z M38.0493912,11.7074808 C38.5341048,11.7074808 38.9730922,11.5108503 39.2903522,11.1924138 L41.6318797,8.85088627 C41.9503946,8.53362631 42.1470252,8.09456048 42.1470252,7.6099253 C42.1470252,6.6405765 41.3602675,5.85381886 40.3908403,5.85381886 C39.9061267,5.85381886 39.4671393,6.05052788 39.1498793,6.36778784 L36.8084302,8.70915852 C36.4899153,9.02759497 36.2932848,9.4666608 36.2932848,9.95129598 C36.2932063,10.9207232 37.0800424,11.7074808 38.0493912,11.7074808 Z M26.3419103,31.6101512 L14.6343511,31.6101512 C13.6650023,31.6101512 12.8782446,32.3958893 12.8782446,33.3663361 C12.8782446,34.3369398 13.6650023,35.122521 14.6343511,35.122521 L26.3418319,35.122521 C27.3111807,35.122521 28.0980168,34.3369398 28.0980168,33.3663361 C28.0980168,32.3958893 27.3112591,31.6101512 26.3419103,31.6101512 Z M46.2445807,17.5612213 L42.7323678,17.5612213 C41.7630191,17.5612213 40.9762614,18.3479789 40.9762614,19.3173277 C40.9762614,20.2866765 41.7629406,21.0735126 42.7323678,21.0735126 L46.2445807,21.0735126 C47.2139295,21.0735126 48.0007656,20.2867549 48.0007656,19.3173277 C48.0007656,18.3479005 47.214008,17.5612213 46.2445807,17.5612213 Z M26.3419103,37.4639701 L14.6343511,37.4639701 C13.6650023,37.4639701 12.8782446,38.2495512 12.8782446,39.220155 C12.8782446,40.1907587 13.6650023,40.9763398 14.6343511,40.9763398 L26.3418319,40.9763398 C27.3111807,40.9763398 28.0980168,40.1907587 28.0980168,39.220155 C28.0980168,38.2495512 27.3112591,37.4639701 26.3419103,37.4639701 Z M35.5077036,26.5373644 C37.4276558,24.7239238 38.6347339,22.1658437 38.6347339,19.3174061 C38.6347339,13.8231224 34.1788197,9.36603174 28.6833595,9.36603174 C25.3807185,9.36603174 22.4608288,10.9804889 20.6520157,13.4589598 C19.4894873,13.093699 18.2602128,12.8783231 16.9758786,12.8783231 C10.441892,12.8783231 5.11380705,17.9792672 4.72046745,24.4148208 C1.91650116,25.8793932 0,28.8109693 0,32.1956508 C0,37.0460811 3.93018033,40.9762614 8.78061064,40.9762614 C9.74995943,40.9762614 10.5367171,40.1906802 10.5367171,39.2200765 C10.5367171,38.2494728 9.74995943,37.4638917 8.78061064,37.4638917 C5.87601529,37.4638917 3.51221288,35.1001677 3.51221288,32.1955723 C3.51221288,30.2298939 4.59874002,28.4409242 6.34778752,27.5277332 L8.10507045,26.6087381 L8.22679788,24.6289418 C8.50899846,20.0091819 12.3525892,16.3903791 16.9758002,16.3903791 C19.676706,16.3903791 22.1891382,17.6149476 23.871518,19.7492562 L24.8830635,21.0335904 L26.5162661,21.0862971 C29.3728606,21.1787692 31.6101512,23.4863354 31.6101512,26.3417535 L31.6101512,28.682183 L33.7713622,29.5835307 C35.3026807,30.2227566 36.2931279,31.7073293 36.2931279,33.3662577 C36.2931279,35.6258231 34.4550594,37.4638917 32.1955723,37.4638917 C31.2262235,37.4638917 30.4393875,38.2494728 30.4393875,39.2200765 C30.4393875,40.1906802 31.2261451,40.9762614 32.1955723,40.9762614 C36.3985413,40.9762614 39.8053408,37.5693051 39.8053408,33.3663361 C39.8054976,30.3540528 38.0458617,27.7701684 35.5077036,26.5373644 Z M34.2409383,22.5263985 C32.8582496,19.6756079 29.9851841,17.6842036 26.6298365,17.5753391 C25.8571183,16.5954019 24.9311427,15.7454276 23.9008518,15.037181 C25.0797726,13.720062 26.7797212,12.8783231 28.6833595,12.8783231 C32.2342396,12.8783231 35.122521,15.766526 35.122521,19.3174061 C35.122521,20.4904445 34.7923981,21.5804226 34.2409383,22.5263985 Z" id="Combined-Shape"></path>
                </g>
            </g>
        </g>
    </g>
</svg>