<svg xmlns="http://www.w3.org/2000/svg" viewBox="0 0 300 300"><title>kerrSymbols</title><path d="M255,44.84a148,148,0,1,0-209.3,209.3A148,148,0,1,0,255,44.84ZM150.33,294.18c-79.78,0-144.69-64.91-144.69-144.69S70.54,4.8,150.33,4.8,295,69.71,295,149.49,230.11,294.18,150.33,294.18Z" style="fill:#984"/><path d="M150.33,4.8C70.54,4.8,5.63,69.71,5.63,149.49S70.54,294.18,150.33,294.18,295,229.27,295,149.49,230.11,4.8,150.33,4.8Z" style="fill:none"/><path d="M167.46,206.84h-.67v3.5h.47c1.18,0,2.19-.18,2.19-1.86S168.41,206.84,167.46,206.84Z" style="fill:#984"/><path d="M201.52,206.75h0a19.5,19.5,0,0,1-.42,2.55l-.8,3.13h2.4l-.75-3.13A19.12,19.12,0,0,1,201.52,206.75Z" style="fill:#984"/><path d="M224.28,194.64H76.22l-9.6,16.48,9.6,16.47H224.28l9.91-16.47Zm-134.14,14c0,.26-.07.31-.31.31H88.76c-.26,0-.31-.05-.31-.31V206.9H87.12v8.76h1.2c.31,0,.38.05.38.38v1c0,.33-.07.38-.38.38H83.46c-.31,0-.38-.05-.38-.38v-1c0-.33.07-.38.38-.38h1.2V206.9H83.33v1.75c0,.26-.07.31-.31.31H81.95c-.26,0-.31-.05-.31-.31v-3.41c0-.26.05-.31.31-.31h7.89c.24,0,.31.05.31.31Zm14-2.35c0,.33-.07.38-.38.38h-.93v9h.93c.31,0,.38.05.38.38v1c0,.33-.07.38-.38.38H99.49c-.31,0-.38-.05-.38-.38v-1c0-.33.07-.38.38-.38h.87v-3.72H96.89v3.72h.87c.31,0,.38.05.38.38v1c0,.33-.07.38-.38.38H93.5c-.31,0-.38-.05-.38-.38v-1c0-.33.07-.38.38-.38h.93v-9H93.5c-.31,0-.38-.05-.38-.38v-1c0-.33.07-.38.38-.38h4.26c.31,0,.38.05.38.38v1c0,.33-.07.38-.38.38h-.87V210h3.48v-3.3h-.87c-.31,0-.38-.05-.38-.38v-1c0-.33.07-.38.38-.38h4.26c.31,0,.38.05.38.38ZM115.45,208c0,.33-.09.38-.38.38h-1.2c-.31,0-.38-.05-.38-.38V206.9h-2.31v3h3.1c.33,0,.38.05.38.38v1.2c0,.33-.07.38-.38.38h-3.1v3.57h2.31v-1.27c0-.31,0-.38.38-.38h1.2c.33,0,.38.05.38.38V217c0,.33-.05.38-.36.38h-7.31c-.31,0-.38-.05-.38-.38v-1c0-.33.07-.38.38-.38h.93v-9h-.93c-.31,0-.38-.05-.38-.38v-1c0-.33.07-.38.38-.38h7.29c.29,0,.38,0,.38.31Zm20.28,9c0,.33-.07.38-.38.38h-2c-.27,0-.27,0-.46-.27l-4-5.23h0v3.75h.87c.31,0,.38.05.38.38v1c0,.33-.07.38-.38.38h-4.26c-.31,0-.38-.05-.38-.38v-1c0-.33.07-.38.38-.38h.93v-9h-.93c-.31,0-.38-.05-.38-.38v-1c0-.33.07-.38.38-.38h4.26c.31,0,.38.05.38.38v1c0,.33-.07.38-.38.38h-.87v3.73h0l3.86-5.3a.35.35,0,0,1,.38-.18h1.95c.31,0,.38.05.38.38v1c0,.33-.07.38-.38.38h-.78L131,211l3.75,4.65h.55c.29,0,.38.05.38.38Zm10.75-9c0,.33-.09.38-.38.38h-1.2c-.31,0-.38-.05-.38-.38V206.9H142.2v3h3.1c.33,0,.38.05.38.38v1.2c0,.33-.07.38-.38.38h-3.1v3.57h2.31v-1.27c0-.31,0-.38.38-.38h1.2c.33,0,.38.05.38.38V217c0,.33-.05.38-.36.38h-7.31c-.31,0-.38-.05-.38-.38v-1c0-.33.07-.38.38-.38h.93v-9h-.93c-.31,0-.38-.05-.38-.38v-1c0-.33.07-.38.38-.38h7.29c.29,0,.38,0,.38.31Zm13.83,9c0,.33-.07.38-.38.38h-2.33c-.29,0-.29,0-.42-.26l-2.46-4.9h-.87v3.41h.86c.31,0,.38.05.38.38v1c0,.33-.07.38-.38.38h-4.24c-.31,0-.38-.05-.38-.38v-1c0-.33.07-.38.38-.38h.93v-9h-.93c-.31,0-.38-.05-.38-.38v-1c0-.33.07-.38.38-.38h4.26c1.4,0,4.24.09,4.24,3.52a3.35,3.35,0,0,1-2.08,3.37l2.2,3.84h.84c.31,0,.38.05.38.38Zm13,0c0,.33-.07.38-.38.38h-2.33c-.29,0-.29,0-.42-.26l-2.46-4.9h-.87v3.41h.86c.31,0,.38.05.38.38v1c0,.33-.07.38-.38.38H163.4c-.31,0-.38-.05-.38-.38v-1c0-.33.07-.38.38-.38h.93v-9h-.93c-.31,0-.38-.05-.38-.38v-1c0-.33.07-.38.38-.38h4.26c1.4,0,4.24.09,4.24,3.52a3.35,3.35,0,0,1-2.08,3.37l2.2,3.84h.84c.31,0,.38.05.38.38Zm22.21-10.66c0,.25-.05.31-.31.31h-.67L192,217.39c-.07.26-.13.33-.4.33h-1.57c-.33,0-.35-.05-.4-.33l-1.2-6.27a27.19,27.19,0,0,1-.42-3.15h0a20.61,20.61,0,0,1-.46,3.15l-1.48,6.27c-.05.27-.07.33-.4.33h-1.57c-.27,0-.33-.07-.4-.33l-2.17-10.71h-.67c-.26,0-.31-.05-.31-.31v-1.13c0-.26.07-.31.31-.31h2.39c.25,0,.29,0,.33.27l1.09,5.83c.18,1,.33,2.51.4,3.44h0a32.1,32.1,0,0,1,.58-3.44l1.29-5.72c.07-.27.05-.38.58-.38h1.22c.36,0,.35.11.4.38l1.27,5.72c.2.93.4,2.4.51,3.44h0c.07-.93.24-2.44.42-3.44l1.09-5.83c0-.24.07-.27.33-.27h2.3c.24,0,.31.05.31.31ZM207.13,217c0,.33-.07.38-.38.38H203c-.31,0-.38-.05-.38-.38v-1c0-.33.07-.38.38-.38h.58l-.42-1.58H200l-.4,1.58h.6c.31,0,.38.05.38.38v1c0,.33-.07.38-.38.38h-3.61c-.31,0-.38-.05-.38-.38v-1c0-.33.07-.38.38-.38h.55l3.19-10.44c.07-.26.09-.29.4-.29h1.89c.29,0,.33,0,.4.29l3.11,10.44h.62c.31,0,.38.05.38.38ZM218,206.37c0,.25-.05.31-.31.31h-.58l-2.79,5.61v3.37h1.24c.31,0,.38.05.38.38v1c0,.33-.07.38-.38.38h-4.94c-.31,0-.38-.05-.38-.38v-1c0-.33.07-.38.38-.38h1.24v-3.37l-2.9-5.61h-.47c-.26,0-.31-.05-.31-.31v-1.13c0-.26.05-.31.31-.31h2.08c.29,0,.29,0,.4.26l1.42,2.93a9.38,9.38,0,0,1,.73,2.08h0a11.28,11.28,0,0,1,.73-2.08l1.42-2.93c.11-.24.11-.26.4-.26h2c.26,0,.31.05.31.31Z" style="fill:#984"/><path d="M154.51,206.84h-.67v3.5h.47c1.18,0,2.19-.18,2.19-1.86S155.46,206.84,154.51,206.84Z" style="fill:#984"/><g style="opacity:0.5"><path d="M24,107l-2-.71.89-2.56a1.1,1.1,0,0,1,1.14-.88l-.25-.1c-1.07-.37-1.68-.19-2,.71L20.83,106l3.11,1.08Z" style="fill:#998042"/><path d="M24.65,99.89c3.14,1.09,3.23,2.86,2.37,5.36l-.89,2.56,1.59.55,0-.1-.53-.18.89-2.56c.87-2.5.78-4.27-2.37-5.36a7.16,7.16,0,0,0-1.24-.32Z" style="fill:#998042"/><rect x="19.76" y="108.94" width="1.1" height="1.13" transform="translate(-89.79 92.73) rotate(-70.83)" style="fill:#998042"/><polygon points="29.35 107.11 29.32 107.2 30.49 107.61 28.62 112.98 29.69 113.35 31.59 107.88 29.35 107.11" style="fill:#998042"/><polygon points="32.18 93.28 33.59 90.38 31.53 89.38 31.43 89.59 32.49 90.11 31.08 93 33.49 94.18 33.59 93.97 32.18 93.28" style="fill:#998042"/><polygon points="28.51 87.67 26.9 90.97 29.02 92 29.13 91.79 28 91.25 29.51 88.16 28.51 87.67" style="fill:#998042"/><polygon points="31.59 86 30.44 88.35 31.44 88.83 32.68 86.28 28.75 84.36 28.64 84.57 31.59 86" style="fill:#998042"/><rect x="25.49" y="93.81" width="0.97" height="1.11" transform="translate(-70.23 76.38) rotate(-64.02)" style="fill:#998042"/><polygon points="35.35 87.58 35.25 87.78 38.43 89.33 33.85 98.74 34.84 99.22 39.53 89.61 35.35 87.58" style="fill:#998042"/><path d="M38.63,74.21h.06a3.06,3.06,0,0,0-1.16-.28c-.75,0-1.37.44-2,1.43a2.62,2.62,0,0,0-.58,2.11,3.88,3.88,0,0,0,1.85,2l.71.46a4.72,4.72,0,0,0,2.26.9,7.44,7.44,0,0,1-1.16-.63l-.71-.46a3.88,3.88,0,0,1-1.85-2,2.62,2.62,0,0,1,.58-2.11C37.25,74.65,37.87,74.21,38.63,74.21Z" style="fill:#998042"/><path d="M46.25,76.85c-.21-1.47-1.3-2.82-3.33-4.13a8.7,8.7,0,0,0-3.38-1.44,10.83,10.83,0,0,1,2.28,1.16c2,1.31,3.11,2.66,3.33,4.13a6.07,6.07,0,0,1-1.3,4.18c-1,1.5-2.24,3-4.32,3a4.6,4.6,0,0,1-.66-.05,5.35,5.35,0,0,0,1.76.33c2.07,0,3.35-1.53,4.32-3A6.07,6.07,0,0,0,46.25,76.85Z" style="fill:#998042"/><path d="M50.23,58.8c2.56,2.13,2,3.82.32,5.86l-1.74,2.08,1.3,1.08.32-.38L49.91,67l1.74-2.08c1.7-2,2.24-3.72-.32-5.86a4.49,4.49,0,0,0-2.55-1.22A6.33,6.33,0,0,1,50.23,58.8Z" style="fill:#998042"/><path d="M46.24,61.06,44.5,63.15,47,65.26l.32-.38L45.6,63.42l1.74-2.08a1.42,1.42,0,0,1,.67-.49A1.15,1.15,0,0,0,46.24,61.06Z" style="fill:#998042"/><rect x="42.5" y="65.58" width="0.71" height="1.02" transform="translate(-35.35 56.65) rotate(-50.16)" style="fill:#998042"/><polygon points="52.25 66.85 51.93 67.23 52.96 68.09 49.57 72.15 50.35 72.81 54.06 68.36 52.25 66.85" style="fill:#998042"/><polygon points="64.79 50.62 64.35 51.04 66.89 53.71 59.58 60.66 60.23 61.35 67.99 53.99 64.79 50.62" style="fill:#998042"/><polygon points="56.8 50.12 55.59 51.27 60.54 56.49 60.98 56.07 56.69 51.55 57.9 50.4 56.22 48.63 55.78 49.04 56.8 50.12" style="fill:#998042"/><rect x="53.25" y="53.39" width="0.6" height="0.96" transform="translate(-22.38 51.65) rotate(-43.5)" style="fill:#998042"/><polygon points="72.41 46.39 71.32 44.94 73.69 43.17 73.38 42.75 73.58 42.59 72.53 41.18 71.96 41.61 72.8 42.73 70.22 44.67 71.84 46.81 72.41 46.39" style="fill:#998042"/><polygon points="68.54 41.23 70.9 39.45 70.38 38.75 67.44 40.95 68.85 42.84 69.42 42.41 68.54 41.23" style="fill:#998042"/><polygon points="73.87 38.67 72.17 39.95 72.69 40.65 74.97 38.94 72.34 35.44 71.77 35.87 73.87 38.67" style="fill:#998042"/><rect x="64.94" y="42.87" width="0.49" height="0.88" transform="translate(-12.95 47.75) rotate(-36.85)" style="fill:#998042"/><polygon points="76.75 41.32 76.18 41.74 78.44 44.76 70.46 50.74 70.98 51.45 79.54 45.03 76.75 41.32" style="fill:#998042"/><path d="M110.63,19.41c.36-.11.78-.22,1.15-.3l-.22-.72a18.48,18.48,0,0,0-2,.47c-1.75.54-1.82.89-1.58,1.68.2.63.41.8,1,.8h.1a2.31,2.31,0,0,1-.1-.25C108.81,20.3,108.88,20,110.63,19.41Z" style="fill:#998042"/><path d="M114.8,19.22l-1.94.6.25.79,2.72-.85-1-3.2-.09-.19h-.2c-.13,0-.35,0-.61,0Z" style="fill:#998042"/><path d="M117.69,23.86c-.46-1.47-1.08-2.22-2.1-2.48a4.28,4.28,0,0,1,1.07,1.93c.92,2.95-.68,4-4.15,5.11a25.38,25.38,0,0,1-4.05.92l.2.64.22,0a24,24,0,0,0,4.66-1C117,27.9,118.61,26.81,117.69,23.86Z" style="fill:#998042"/><path d="M112,24.37a15.26,15.26,0,0,1,1.63-.24.73.73,0,0,0-.82-.56,11.87,11.87,0,0,0-1.84.26,9.64,9.64,0,0,1-3.77.23C108.16,24.92,109.56,24.83,112,24.37Z" style="fill:#998042"/><path d="M110.6,26.63l-.38-1.22-.78.24.35,1.13Z" style="fill:#998042"/><polygon points="132.3 21.29 133.22 21.12 128.1 13.04 127.18 13.21 132.3 21.29" style="fill:#998042"/><polygon points="128.51 20.87 124.56 21.6 124.31 22.85 125.85 22.57 125.93 22.14 128.96 21.59 128.51 20.87" style="fill:#998042"/><polygon points="126.03 23.33 126.3 24.84 122 25.62 122.14 26.4 127.68 25.39 127.26 23.11 126.03 23.33" style="fill:#998042"/><polygon points="134.93 21.61 133.7 21.84 133.99 23.43 129.16 24.31 129.3 25.09 135.36 23.98 134.93 21.61" style="fill:#998042"/><path d="M125.6,16c-.08.45-.19,1-.28,1.51l-.16.86-.19,1,1.53-.28,0-.2.16-.86,0-.18L125.6,16Z" style="fill:#998042"/><polygon points="142.84 21.25 142.94 22.78 137.95 23.09 138 23.96 143.76 23.61 143.62 21.2 142.84 21.25" style="fill:#998042"/><polygon points="144.43 13.08 140.76 13.3 140.91 15.79 141.68 15.75 141.59 14.12 144.48 13.95 144.43 13.08" style="fill:#998042"/><rect x="137.39" y="13.54" width="0.43" height="0.87" transform="translate(-0.6 8.42) rotate(-3.5)" style="fill:#998042"/><polygon points="144.06 16.48 144.15 17.93 141.06 18.12 141.2 20.48 141.97 20.43 141.88 18.95 144.97 18.76 144.83 16.43 144.06 16.48" style="fill:#998042"/><polygon points="147.94 11.34 147.17 11.38 147.39 14.88 145.32 15.01 145.37 15.88 148.21 15.71 147.94 11.34" style="fill:#998042"/><polygon points="156.23 13.05 156.1 15.4 156.97 15.45 157.05 13.87 159.85 14.02 159.89 13.24 156.23 13.05" style="fill:#998042"/><polygon points="159.2 17.85 155.99 17.68 155.85 20.37 156.71 20.41 156.81 18.51 159.61 18.65 159.63 18.23 160.05 18.25 160.14 16.39 159.28 16.35 159.2 17.85" style="fill:#998042"/><rect x="152.67" y="13.2" width="0.78" height="0.34" transform="translate(131.74 165.53) rotate(-87.01)" style="fill:#998042"/><polygon points="162.82 11.82 162.63 15.41 160.65 15.31 160.61 16.09 163.45 16.24 163.68 11.87 162.82 11.82" style="fill:#998042"/><polygon points="162.24 23.02 152.42 22.51 152.38 23.29 163.06 23.84 163.3 19.2 162.44 19.16 162.24 23.02" style="fill:#998042"/><polygon points="171.39 15.26 172.23 15.41 172.38 14.58 170.7 14.29 170.34 16.4 168.5 16.08 168.35 16.91 171.02 17.37 171.39 15.26" style="fill:#998042"/><polygon points="176.85 16.22 176.99 15.39 175.3 15.1 174.05 22.34 174.88 22.48 175.99 16.07 176.85 16.22" style="fill:#998042"/><polygon points="175.07 24.94 170.11 24.08 169.97 24.91 175.76 25.92 176.17 23.56 175.34 23.41 175.07 24.94" style="fill:#998042"/><polygon points="179.89 14.46 179.28 17.94 177.46 17.63 177.32 18.46 179.97 18.92 180.72 14.6 179.89 14.46" style="fill:#998042"/><path d="M189.51,18.62l-1.14-.35.18.55c.18.57.37.49.37.49l1.14.35.68-2.25-.79-.24Z" style="fill:#998042"/><polygon points="185.16 17.4 184.77 17.28 184.52 18.08 185.48 18.37 185.16 17.4" style="fill:#998042"/><polygon points="190.18 28.9 185.19 27.39 184.95 28.19 190.73 29.95 191.43 27.64 190.63 27.4 190.18 28.9" style="fill:#998042"/><polygon points="196.66 19.22 196.2 20.75 195.01 20.39 189.98 24.27 189.41 26.15 190.2 26.39 190.53 25.32 195.56 21.43 196.75 21.79 197.46 19.46 196.66 19.22" style="fill:#998042"/><polygon points="231.18 43.37 230.3 44.55 227.79 42.69 226.19 44.84 226.88 45.35 228 43.85 230.15 45.45 230.43 45.08 230.78 45.34 231.87 43.88 231.18 43.37" style="fill:#998042"/><rect x="227.4" y="37.39" width="0.81" height="0.31" transform="translate(61.97 198.17) rotate(-53.44)" style="fill:#998042"/><polygon points="236.55 41.49 234.42 44.35 232.88 43.21 232.4 43.87 234.63 45.52 237.24 42.01 236.55 41.49" style="fill:#998042"/><polygon points="230.56 38.96 229.15 40.85 229.84 41.36 230.76 40.12 232.92 41.72 233.4 41.07 230.56 38.96" style="fill:#998042"/><polygon points="229.89 50.47 222.24 44.79 221.75 45.45 230.1 51.63 232.86 47.91 232.17 47.39 229.89 50.47" style="fill:#998042"/><polygon points="240.47 46.9 240.15 46.6 239.6 47.19 240.37 47.91 240.47 46.9" style="fill:#998042"/><polygon points="243.07 49.17 243.07 50.26 243.79 50.95 245.37 49.27 244.82 48.76 243.79 49.85 243.07 49.17" style="fill:#998042"/><polygon points="237.69 55.39 236.68 56.46 233.5 53.46 232.95 54.04 236.68 57.56 238.24 55.91 237.69 55.39" style="fill:#998042"/><polygon points="237.47 54.08 238.24 54.81 237.97 55.09 240.22 54.7 240.35 53.58 237.47 54.08" style="fill:#998042"/><polygon points="248.36 54.35 247.47 53.51 243.08 54.18 243.08 55.27 247.47 54.61 248.36 55.45 250.04 53.68 249.49 53.16 248.36 54.35" style="fill:#998042"/><polygon points="241.92 61.41 238.22 57.91 237.67 58.49 241.92 62.5 243.57 60.75 243.02 60.23 241.92 61.41" style="fill:#998042"/><path d="M251.26,71.65l-.17-.11a18.11,18.11,0,0,1-3.26-3.07A6,6,0,0,1,246.17,65c-.46,1.62.26,3.07,1.52,4.59A18.11,18.11,0,0,0,251,72.71l.17.11,3.23-2.7-.52-.62Z" style="fill:#998042"/><path d="M255.88,64.16l.58-.49a14.76,14.76,0,0,0-1.08-1.52,2.27,2.27,0,0,0-1.7-1,4,4,0,0,0-2.37,1.2l-.65.54c-1.28,1.07-1.78,1.95-1.58,2.85A5.18,5.18,0,0,1,250.53,64l.65-.54a4,4,0,0,1,2.37-1.2,2.27,2.27,0,0,1,1.7,1C255.46,63.57,255.68,63.87,255.88,64.16Z" style="fill:#998042"/><path d="M259.31,64.91,256.77,67l-1.26-1.51-.66.55,1.78,2.13,3-2.53-.07-.18A6,6,0,0,0,259.31,64.91Z" style="fill:#998042"/><rect x="261.27" y="70.89" width="0.78" height="0.36" transform="translate(4.07 155.71) rotate(-33.39)" style="fill:#998042"/><polygon points="261.59 78.54 259.88 75.94 257.63 77.41 258.07 78.08 259.67 77.03 261.18 79.32 261.53 79.09 261.74 79.41 263.3 78.39 262.85 77.71 261.59 78.54" style="fill:#998042"/><polygon points="259.18 83.97 253.9 75.96 253.25 76.39 258.97 85.06 262.85 82.51 262.41 81.84 259.18 83.97" style="fill:#998042"/><polygon points="265.54 79.78 264.45 78.13 263.8 78.56 265.33 80.88 268.99 78.47 268.54 77.8 265.54 79.78" style="fill:#998042"/><polygon points="265.7 76.34 263.75 73.38 261.78 74.68 262.23 75.35 263.55 74.48 265.06 76.77 265.7 76.34" style="fill:#998042"/><rect x="269.49" y="84.15" width="0.81" height="0.37" transform="translate(-8.97 131.11) rotate(-26.87)" style="fill:#998042"/><polygon points="265.99 96.86 261.65 88.31 260.93 88.67 265.62 97.94 269.77 95.84 269.41 95.13 265.99 96.86" style="fill:#998042"/><polygon points="272.38 88.35 271.65 86.9 265.24 90.16 265.6 90.86 271.29 87.98 272.02 89.43 274.19 88.32 273.84 87.61 272.38 88.35" style="fill:#998042"/><polygon points="271.14 110.07 267.81 101.14 267 101.44 270.63 111.17 274.98 109.55 274.68 108.75 271.14 110.07" style="fill:#998042"/><rect x="275.97" y="97.94" width="0.86" height="0.31" transform="translate(-16.85 102.83) rotate(-20.46)" style="fill:#998042"/><polygon points="278.44 102.33 277.88 100.81 271.14 103.32 271.44 104.12 277.37 101.91 277.94 103.43 280.22 102.58 279.92 101.78 278.44 102.33" style="fill:#998042"/><rect x="280.95" y="112.26" width="0.82" height="0.32" transform="translate(-18.77 70.91) rotate(-13.9)" style="fill:#998042"/><polygon points="282.59 115.27 280.3 115.84 280.5 116.66 282 116.29 282.64 118.91 283.44 118.71 282.59 115.27" style="fill:#998042"/><polygon points="274.75 123.73 272.45 114.47 271.65 114.67 274.15 124.75 278.66 123.63 278.46 122.81 274.75 123.73" style="fill:#998042"/><polygon points="278.83 119.42 278.08 116.39 275.48 117.04 275.68 117.86 277.49 117.41 278.14 120.03 278.59 119.92 278.69 120.33 280.46 119.89 280.25 119.07 278.83 119.42" style="fill:#998042"/><polygon points="282.14 121.9 281.67 120.02 280.88 120.22 281.54 122.92 285.79 121.86 285.59 121.04 282.14 121.9" style="fill:#998042"/><path d="M280.49,130.83l-2.1.26.13,1,1.29-.16,2.42-.31,1.55-1.25C282.59,130.57,280.81,130.79,280.49,130.83Z" style="fill:#998042"/><path d="M282.49,135.58l4.81-3.89-.07-.53-5.62,4.55Z" style="fill:#998042"/><rect x="285.25" y="134.91" width="0.81" height="0.26" transform="translate(-14.37 35.95) rotate(-7.03)" style="fill:#998042"/><polygon points="286.54 138.81 286.4 137.7 276.92 138.87 276.66 136.73 275.91 137.33 276.24 140 285.72 138.83 285.86 139.94 288.28 139.65 288.15 138.61 286.54 138.81" style="fill:#998042"/><polygon points="277.75 132.54 276.17 132.74 275.67 128.68 274.86 128.78 275.49 133.87 277.88 133.58 277.75 132.54" style="fill:#998042"/><rect x="284.34" y="127.56" width="0.81" height="0.13" transform="matrix(0.99, -0.12, 0.12, 0.99, -13.46, 35.76)" style="fill:#998042"/><path d="M277.77,154.23l-.06-.19a18.12,18.12,0,0,1-.6-4.44,6.58,6.58,0,0,1,.64-3.35c-1.12,1-1.42,2.47-1.39,4.28A18.12,18.12,0,0,0,277,155l.06.19,4.21-.07v-.91Z" style="fill:#998042"/><path d="M284.95,154.12l0-1.86h-.76l0,2.78,3.94-.06.06-.19a6.42,6.42,0,0,0,.17-.73Z" style="fill:#998042"/><path d="M286.2,150.37c0,.3,0,.63,0,.95h.66a14.79,14.79,0,0,0,.12-1.87c0-1.79-.84-2.42-3.09-2.42l-1,0c-1.82,0-2.78.45-3.13,1.44a4.61,4.61,0,0,1,2.38-.52l1,0C285.36,148,286.17,148.58,286.2,150.37Z" style="fill:#998042"/><polygon points="285.83 166.77 286.22 163.25 283.88 162.99 283.79 163.83 285.33 164 285.04 166.68 285.83 166.77" style="fill:#998042"/><rect x="285.9" y="159.75" width="0.32" height="0.8" transform="translate(95.73 427.08) rotate(-83.75)" style="fill:#998042"/><polygon points="283.51 169.31 283.72 167.39 282.92 167.3 282.62 170.06 286.97 170.54 287.06 169.7 283.51 169.31" style="fill:#998042"/><polygon points="275.95 168.48 276.99 158.99 276.19 158.91 275.05 169.24 279.67 169.74 279.76 168.9 275.95 168.48" style="fill:#998042"/><polygon points="282.64 166.85 282.74 166.01 281.27 165.84 281.61 162.74 278.94 162.45 278.84 163.29 280.71 163.5 280.42 166.18 280.87 166.22 280.82 166.65 282.64 166.85" style="fill:#998042"/><polygon points="178.94 282.87 177.67 276.38 178.46 276.23 178.31 275.51 176.63 275.83 178.03 283.04 178.94 282.87" style="fill:#998042"/><polygon points="181.36 277.08 179.62 277.42 179.76 278.14 182.41 277.63 181.57 273.33 180.67 273.5 181.36 277.08" style="fill:#998042"/><polygon points="179.6 283.49 179.92 285.12 175.05 286.06 175.19 286.79 180.96 285.67 180.5 283.32 179.6 283.49" style="fill:#998042"/><polygon points="173.85 277.11 173.71 276.39 172.04 276.71 172.45 278.82 170.69 279.16 170.83 279.88 173.49 279.37 173.08 277.26 173.85 277.11" style="fill:#998042"/><polygon points="196.15 272.52 194.15 273.18 194.4 273.94 197.1 273.05 195.74 268.89 195.04 269.12 196.15 272.52" style="fill:#998042"/><polygon points="190.76 274.63 190.27 273.15 193.06 272.24 192.81 271.48 189.32 272.62 190.06 274.86 190.76 274.63" style="fill:#998042"/><polygon points="198.03 275.88 197.33 276.11 198.52 279.75 189.06 282.86 189.31 283.62 199.47 280.29 198.03 275.88" style="fill:#998042"/><polygon points="192.31 279.36 191.72 277.57 194.51 276.65 194.37 276.23 194.64 276.14 194.07 274.39 193.37 274.62 193.83 276.03 190.77 277.03 191.61 279.58 192.31 279.36" style="fill:#998042"/><rect x="186.2" y="273.69" width="0.47" height="0.8" transform="translate(-76.18 71.81) rotate(-18.17)" style="fill:#998042"/><polygon points="209.52 271.16 205.88 272.87 205.97 274.14 207.02 273.65 206.98 273.07 210.03 271.64 209.52 271.16" style="fill:#998042"/><path d="M205.65,269.64l.08,1,1-.49,0-.34c0-.14,0-.47-.07-.87l0-.6-1.14-1.11,0,0c0,.45.08,1,.12,1.53S205.64,269.5,205.65,269.64Z" style="fill:#998042"/><polygon points="213.29 270.59 213.87 270.31 206.74 263.72 206.16 264 213.29 270.59" style="fill:#998042"/><polygon points="215.54 270.25 214.72 270.63 215.47 272.22 210.72 274.46 211 275.05 216.57 272.43 215.54 270.25" style="fill:#998042"/><polygon points="207.69 274.05 208.4 275.55 204.13 277.56 204.41 278.16 209.5 275.76 208.51 273.66 207.69 274.05" style="fill:#998042"/><polygon points="240.04 242.46 239.38 243.05 239.91 243.63 240.43 243.17 240.04 242.46" style="fill:#998042"/><path d="M242.81,247.4l-.58-1-.11-.07-3.69-2.22-.39.35,3,1.79C241.26,246.42,242.08,246.92,242.81,247.4Z" style="fill:#998042"/><path d="M234.8,247.17l-1.22,1.09,2.9,2.05c.46.33,1.13.8,1.72,1.23-.19-.38-.39-.78-.55-1.12l-.07,0-2.9-2.05,1.22-1.09-1.57-1.74-.57.52Z" style="fill:#998042"/><polygon points="243.17 240.83 244.02 240.07 242.39 238.25 241.81 238.77 242.92 240 242.07 240.76 246.77 249.49 244.8 251.25 245.49 251.69 247.87 249.55 243.17 240.83" style="fill:#998042"/><path d="M240.68,249.28l-.21-.13-1.32-.82c.37.75.82,1.69.93,1.93l1.76,3.66L240,255.56l.67.45,2.27-2-1.76-3.66Z" style="fill:#998042"/><polygon points="231.34 250.41 231.02 250.69 231.55 251.28 232.01 250.86 231.34 250.41" style="fill:#998042"/><path d="M251.12,231.91a2,2,0,0,0-.5-.07,3.59,3.59,0,0,0-2.79,3.18,3.88,3.88,0,0,0,1.58,2.2l.64.55A4.11,4.11,0,0,0,252.5,239h0a1.75,1.75,0,0,0,.59-.11,5.16,5.16,0,0,1-1.94-1.15l-.64-.55a3.88,3.88,0,0,1-1.58-2.2,2.62,2.62,0,0,1,.85-2A3.32,3.32,0,0,1,251.12,231.91Z" style="fill:#998042"/><path d="M256.4,230.89a7,7,0,0,0-4.31-2,3.71,3.71,0,0,0-.69.07,7.5,7.5,0,0,1,3.92,2c4.16,3.54,2.91,6.17.93,8.5a6.45,6.45,0,0,1-3.46,2.41l.39,0c1.81,0,3.17-1.33,4.16-2.48C259.3,237.07,260.56,234.43,256.4,230.89Z" style="fill:#998042"/><path d="M262.49,216.53c1.58,1,2.08,2.09,1.68,3.57l1.1-.22c.4-1.48-.1-2.54-1.68-3.57a4.43,4.43,0,0,0-2.37-.87,2.42,2.42,0,0,0-1,.23A4.51,4.51,0,0,1,262.49,216.53Z" style="fill:#998042"/><polygon points="262.77 223.01 261.81 224.47 263.59 225.63 264.02 224.97 262.91 224.24 263.76 222.95 262.77 223.01" style="fill:#998042"/><path d="M260.33,218.74c-.57-.21-1-.05-1.39.58l-1.5,2.29,2.55,1.67.43-.66-1.88-1.23,1.5-2.29A2.18,2.18,0,0,1,260.33,218.74Z" style="fill:#998042"/><rect x="255.94" y="224.13" width="0.42" height="0.8" transform="translate(-71.92 316.15) rotate(-56.84)" style="fill:#998042"/><polygon points="269.05 218.56 268.62 219.22 269.96 220.1 267.49 223.9 268.15 224.33 271.06 219.88 269.05 218.56" style="fill:#998042"/><polygon points="264.88 225.11 266.15 225.94 263.69 229.7 264.36 230.14 267.25 225.72 265.31 224.45 264.88 225.11" style="fill:#998042"/><polygon points="15.92 149.67 13.77 149.71 13.78 150.56 15.14 150.54 15.17 152.01 15.95 151.42 15.92 149.67" style="fill:#998042"/><rect x="20.24" y="146.3" width="0.79" height="0.35" transform="translate(-2.35 0.35) rotate(-0.92)" style="fill:#998042"/><path d="M21.24,152.33l0-2.74-3.08.05v.85l2.3,0,0,2.74a2.43,2.43,0,0,1,0,.38C21.09,153.39,21.25,153,21.24,152.33Z" style="fill:#998042"/><polygon points="13 150.86 11.45 150.89 11.38 146.45 10.59 146.47 10.68 151.75 13.01 151.71 13 150.86" style="fill:#998042"/><path d="M19.84,156.63H19.7c-1.79,0-2.8-.61-3.29-2l-.77.86c.49,1.41,1.49,2,3.29,2h.14c1.79,0,2.76-.56,3.27-1.5A4.43,4.43,0,0,1,19.84,156.63Z" style="fill:#998042"/><polygon points="11.56 157.86 11.49 153.39 10.71 153.41 10.79 158.72 13.22 158.68 13.21 157.83 11.56 157.86" style="fill:#998042"/><rect x="23.58" y="178.57" width="0.76" height="0.48" transform="translate(-45.3 12.23) rotate(-14.94)" style="fill:#998042"/><polygon points="25.59 183.44 25.16 181.82 18.14 183.69 18.33 184.39 24.61 182.72 25.04 184.33 27.42 183.7 27.23 183 25.59 183.44" style="fill:#998042"/><polygon points="17.52 190.6 14.95 180.97 14.22 181.16 16.98 191.49 21.5 190.29 21.32 189.59 17.52 190.6" style="fill:#998042"/><path d="M29.28,197l-1.56,0-.88,0H25.79l.48,1.23h.3l.88,0h.43l1.36-1.23Z" style="fill:#998042"/><polygon points="25.37 204.67 25.65 205.38 32.73 198.69 32.45 197.98 25.37 204.67" style="fill:#998042"/><polygon points="23.58 197.13 22.29 197.13 22.78 198.37 23.31 198.37 24.5 201.38 25.06 200.87 23.58 197.13" style="fill:#998042"/><polygon points="23.58 206.75 21.7 202 21.04 202.26 23.3 207.99 25.56 207.1 25.18 206.12 23.58 206.75" style="fill:#998042"/><polygon points="22.22 198.89 20.71 199.48 19.03 195.22 18.37 195.48 20.43 200.72 22.6 199.86 22.22 198.89" style="fill:#998042"/><polygon points="37.16 216.17 36.23 214.43 35.49 214.82 36.75 217.2 40.65 215.13 40.31 214.49 37.16 216.17" style="fill:#998042"/><polygon points="36.99 211.27 30.43 214.75 30.77 215.38 36.58 212.3 37.05 213.18 37.8 212.78 36.99 211.27" style="fill:#998042"/><polygon points="34.4 208.16 34.86 209.03 35.61 208.64 34.81 207.13 32.9 208.15 31.97 206.39 31.22 206.79 32.49 209.18 34.4 208.16" style="fill:#998042"/><polygon points="28.98 217.17 26.56 212.61 25.82 213 28.57 218.2 30.7 217.06 30.37 216.43 28.98 217.17" style="fill:#998042"/><path d="M61.59,249.68l.73-.82,1.07-6-.5-.46Z" style="fill:#998042"/><polygon points="55.41 250.88 52.42 248.13 51.86 248.74 55.73 252.31 57.38 250.53 56.49 249.71 55.41 250.88" style="fill:#998042"/><polygon points="68.58 247.69 67.48 248.88 66.63 248.1 60.09 255.19 58.56 253.78 58.39 254.76 60.41 256.62 66.95 249.53 67.8 250.31 69.47 248.51 68.58 247.69" style="fill:#998042"/><path d="M59.74,244.07c-.87,1-2.25,2.48-2.27,2.5L56,248.14l.89.82.89-1,1.53-1.68Z" style="fill:#998042"/><path d="M70.92,259.3l-.69-.49-.65.91c.15.15.38.35.63.57Z" style="fill:#998042"/><path d="M75.83,254.7a3.21,3.21,0,0,0-1.54-.76c-.19,0-.42.06-.76.54a.94.94,0,0,0,.05,1.4l.1-.16c.33-.47.57-.54.76-.54a3.21,3.21,0,0,1,1.54.76c.3.22.63.48.92.72l.49-.68A18.37,18.37,0,0,0,75.83,254.7Z" style="fill:#998042"/><path d="M72.87,260.11A15.68,15.68,0,0,1,74,261.25c.45-.67.29-.91-1.33-2.38A9.41,9.41,0,0,1,70.22,256C70,257.34,71,258.39,72.87,260.11Z" style="fill:#998042"/><path d="M76.53,263.07a3.17,3.17,0,0,1-2.6,1.67c-1,0-2.19-.55-4-1.83a25.1,25.1,0,0,1-3.17-2.65l-.44.62.15.16a23.68,23.68,0,0,0,3.61,3.11c1.81,1.28,3,1.83,4,1.83a3.17,3.17,0,0,0,2.6-1.67c.94-1.32,1.12-2.26.74-3.18A4.59,4.59,0,0,1,76.53,263.07Z" style="fill:#998042"/><path d="M80.79,257.22a5.65,5.65,0,0,0-.45-.5l-1.66,2.35L77,257.91l-.53.75,2.32,1.65,2.07-2.92Z" style="fill:#998042"/><rect x="84.29" y="261.21" width="0.75" height="0.39" transform="translate(-185.81 213.04) rotate(-61.91)" style="fill:#998042"/><rect x="90.74" y="264.55" width="0.75" height="0.59" transform="translate(-185.42 220.48) rotate(-61.9)" style="fill:#998042"/><polygon points="89.08 269.3 89.43 268.63 85.52 266.55 84.25 268.93 84.97 269.31 85.88 267.6 89.08 269.3" style="fill:#998042"/><polygon points="88.88 263.22 87.64 262.56 86.6 264.51 87.32 264.9 88.01 263.61 89.25 264.27 90.41 262.1 89.69 261.72 88.88 263.22" style="fill:#998042"/><polygon points="96.05 265.11 95.24 266.62 94.18 266.05 90.78 272.42 91.5 272.8 94.55 267.1 95.61 267.67 96.77 265.5 96.05 265.11" style="fill:#998042"/><polygon points="90.7 275.13 86.5 272.88 86.14 273.55 91.07 276.18 92.21 274.03 91.49 273.65 90.7 275.13" style="fill:#998042"/><polygon points="85.13 270.26 84.34 271.73 80.14 269.49 79.78 270.16 84.71 272.78 85.85 270.64 85.13 270.26" style="fill:#998042"/><rect x="111.11" y="273.12" width="0.8" height="0.36" transform="translate(-181.59 308.24) rotate(-74.6)" style="fill:#998042"/><path d="M115.27,274.64l2.61.72a2.07,2.07,0,0,1,.35.13,1.1,1.1,0,0,0-1-1.12l-2.61-.72-.88,3.22.81.22Z" style="fill:#998042"/><polygon points="113.65 283.49 108.89 282.17 108.67 282.94 114.25 284.48 114.88 282.18 114.07 281.96 113.65 283.49" style="fill:#998042"/><path d="M121.1,274.36a4.74,4.74,0,0,1-.11,2.72c-.59,2.13-1.58,3.08-3.21,3.08a7.65,7.65,0,0,1-2-.33l-2.61-.72-.45,1.65.81.22.24-.88,2.61.72a7.65,7.65,0,0,0,2,.33c1.63,0,2.62-.95,3.21-3.08C122.09,276.26,121.86,275.13,121.1,274.36Z" style="fill:#998042"/><path d="M130.52,283c.68.19,1.16.33,1.5.47.05-.69-.28-.85-2.27-1.4a10.68,10.68,0,0,1-3.35-1.32C126.9,281.85,128.21,282.34,130.52,283Z" style="fill:#998042"/><path d="M128.42,283.13l-.89-.14-.19,1.21c.21.07.52.15.87.24Z" style="fill:#998042"/><path d="M134.9,281.72a4.21,4.21,0,0,1,.15,2.35c-.33,2.16-1.36,3-3.57,3a16.32,16.32,0,0,1-2.4-.22,25.1,25.1,0,0,1-4-.93l-.1.63.21.08a23.7,23.7,0,0,0,4.63,1.16,16.32,16.32,0,0,0,2.4.22c2.21,0,3.24-.88,3.57-3C136.08,283.31,135.76,282.37,134.9,281.72Z" style="fill:#998042"/><path d="M130.66,276.91a7.32,7.32,0,0,0-1.07-.1c-.74,0-1,.21-1.09.93s0,.92.73,1.25a2.82,2.82,0,0,1,0-.31c.11-.72.36-.93,1.09-.93a7.32,7.32,0,0,1,1.07.1c.35.05.74.13,1.09.21l.11-.71A18.4,18.4,0,0,0,130.66,276.91Z" style="fill:#998042"/><path d="M136.3,276.84a5.89,5.89,0,0,0-.68-.27l-.45,3-1.93-.29-.12.8,2.81.43.54-3.54Z" style="fill:#998042"/><polygon points="22.24 166.08 19.87 166.41 19.99 167.25 21.5 167.04 21.89 169.84 22.74 169.72 22.24 166.08" style="fill:#998042"/><polygon points="21.1 172.82 20.82 170.84 19.97 170.96 20.36 173.78 24.74 173.17 24.62 172.33 21.1 172.82" style="fill:#998042"/><rect x="20.86" y="162.86" width="0.86" height="0.35" transform="translate(-22.18 4.46) rotate(-7.89)" style="fill:#998042"/><polygon points="18.03 169.91 17.59 166.73 14.9 167.1 15.02 167.94 16.86 167.69 17.25 170.48 17.73 170.41 17.79 170.81 19.58 170.56 19.46 169.72 18.03 169.91" style="fill:#998042"/><polygon points="13.48 173.88 12.13 164.13 11.28 164.24 12.75 174.84 17.39 174.19 17.27 173.35 13.48 173.88" style="fill:#998042"/><rect x="41.2" y="219.98" width="0.88" height="0.59" transform="translate(-115.79 60.68) rotate(-33.9)" style="fill:#998042"/><polygon points="44.62 223.91 43.83 222.75 37.84 226.77 38.3 227.45 43.56 223.91 44.34 225.08 46.38 223.71 45.93 223.03 44.62 223.91" style="fill:#998042"/><polygon points="36.62 229.29 33.84 225.17 33.11 225.66 36.34 230.46 38.35 229.11 37.9 228.43 36.62 229.29" style="fill:#998042"/><path d="M46.48,234.17l.65-.55a4.05,4.05,0,0,1,2.41-1.2,2.56,2.56,0,0,1,1.9,1.17,3.93,3.93,0,0,1,.75,1.21,2.41,2.41,0,0,0-.75-2.39,2.56,2.56,0,0,0-1.9-1.17,4.05,4.05,0,0,0-2.41,1.2l-.65.55c-1.52,1.28-1.86,2.24-1.56,3.14A4.66,4.66,0,0,1,46.48,234.17Z" style="fill:#998042"/><path d="M55.12,235.34c-.2,1.22-1,2.52-2.78,4a7.12,7.12,0,0,1-4.39,2c-1.85,0-3.21-1.34-4.19-2.51A7,7,0,0,1,42,235.61c-.25,1.65.62,3.09,1.74,4.42,1,1.17,2.34,2.51,4.19,2.51a7.12,7.12,0,0,0,4.39-2C54.65,238.56,55.37,236.91,55.12,235.34Z" style="fill:#998042"/><rect x="100.51" y="269.15" width="0.84" height="0.55" transform="translate(-186.73 263.96) rotate(-68.37)" style="fill:#998042"/><polygon points="101.86 279.72 97.28 277.9 96.97 278.68 102.35 280.81 103.24 278.56 102.44 278.24 101.86 279.72" style="fill:#998042"/><polygon points="106.01 269.25 105.41 270.75 104.1 270.24 101.44 276.94 102.24 277.26 104.59 271.33 105.9 271.85 106.81 269.56 106.01 269.25" style="fill:#998042"/><path d="M225,265l2.18-1.42-.64-1,.43-.28-.39-1.73-.1-.47-.24-.36-1.55-2.42c.13.61.28,1.29.4,1.91l.25,1.19.66,3-1.7,1.11Z" style="fill:#998042"/><polygon points="227.19 253.62 226.19 254.28 230.1 260.26 230.89 259.74 227.42 254.42 228.43 253.76 227.09 251.72 226.29 252.24 227.19 253.62" style="fill:#998042"/><path d="M221,259.33s1.16.79,2,1.38c-.06-.26-.12-.56-.19-.88l-.53-.36-3.4-2.35-.53.35Z" style="fill:#998042"/><path d="M218.76,261.24l1.57,2.37,1.39,2.12.8-.52-1-1.46-.62-.94-.21-.15Z" style="fill:#998042"/><polygon points="232.34 259.74 231.54 260.26 232.42 261.62 228.65 264.08 229.09 264.74 233.66 261.76 232.34 259.74" style="fill:#998042"/><rect x="215.63" y="261.18" width="0.25" height="0.79" transform="translate(-107.97 160.72) rotate(-33.18)" style="fill:#998042"/><polygon points="223.26 265.68 224.14 267.03 220.66 269.31 221.09 269.97 225.38 267.17 224.06 265.16 223.26 265.68" style="fill:#998042"/><path d="M266.46,206l-.46,1,2.88,1.38c-.11-.29-.23-.63-.35-1l-1.48-.71.46-1-2.12-1-.32.66Z" style="fill:#998042"/><polygon points="269.56 199.75 268.96 201.02 270.23 204.99 271.28 204.68 270.01 200.71 270.61 199.45 268.41 198.39 268.1 199.05 269.56 199.75" style="fill:#998042"/><polygon points="272.53 209.29 271.96 207.48 270.89 207.73 271.48 209.6 272.61 210.14 272.92 209.48 272.53 209.29" style="fill:#998042"/><polygon points="277.13 202.36 276.82 203.02 278.25 203.71 276.17 208.06 276.91 208.41 279.31 203.41 277.13 202.36" style="fill:#998042"/><rect x="264.84" y="209.65" width="0.47" height="0.81" transform="translate(-38.91 358.31) rotate(-64.39)" style="fill:#998042"/><polygon points="273.79 209.56 275.14 210.21 273.22 214.22 273.95 214.57 276.19 209.9 274.1 208.9 273.79 209.56" style="fill:#998042"/></g><path d="M26.76,105.16l-1,2.82,2.11.73.53-1.54,1.71.6-1.72,4.95-1.76-.61.39-1.14-7.26-2.52-.4,1.14L17.61,109l2.17-6.26c.81-2.33,1.79-3.6,4.78-2.56S27.57,102.83,26.76,105.16Zm-5.3-1.84-1,2.82,3.63,1.26,1-2.85c.29-.84.16-1.6-1.3-2.11S21.75,102.48,21.46,103.32Z" style="fill:#984"/><path d="M33.62,98.58l-1.67-.81.53-1.08-6.91-3.37L25,94.4l-1.7-.83,4.44-9.12,3.44,1.68-1,2.07-1.83-.89L26.54,91.1l2.61,1.27,1.41-2.89,1.56.76-1.41,2.89,2.91,1.42,1.85-3.79-2.09-1,1-2.07,3.68,1.79Z" style="fill:#984"/><path d="M43.62,80.61c-1.78,2.76-3.83,4.15-8,1.46s-3.7-5.15-1.92-7.91,3.8-4.17,8-1.48S45.41,77.84,43.62,80.61Zm-3.65-6c-2.31-1.5-3.55-1.13-4.68.62s-1,3,1.35,4.47l.71.46c2.31,1.5,3.6,1.17,4.73-.57s.91-3-1.4-4.52Z" style="fill:#984"/><path d="M50.34,64.48l-1.91,2.29,1.72,1.43,1-1.25,1.39,1.16-3.35,4L47.79,71l.77-.92L42.65,65.1l-.77.92-1.45-1.21,4.25-5.09c1.58-1.9,2.95-2.73,5.38-.71S51.92,62.59,50.34,64.48ZM46,60.89l-1.91,2.29,3,2.46L49,63.33c.57-.68.71-1.44-.48-2.43S46.6,60.2,46,60.89Z" style="fill:#984"/><path d="M59.14,60.69l-1.28-1.35.87-.83-5.29-5.58-.87.83-1.3-1.37,3.84-3.65,1.3,1.37L55.2,51.26l5.33,5.61L63.59,54,62,52.31l1.67-1.58,2.82,3Z" style="fill:#984"/><path d="M69.94,50.79,68.82,49.3l1-.72-4.61-6.15-1,.72-1.13-1.51,8.11-6.09,2.3,3.06L71.65,40l-1.22-1.63L67.05,40.9l1.74,2.33,2.58-1.93,1,1.39-2.58,1.93,1.94,2.59,3.38-2.53-1.4-1.86,1.84-1.38,2.46,3.28Z" style="fill:#984"/><path d="M112.43,28.17a23.89,23.89,0,0,1-4.61,1l-1-3.25L109,25.2l.58,1.88a13.93,13.93,0,0,0,2.37-.53c2-.63,2.42-1.1,2-2.34s-.84-1.08-3-.67c-3.65.68-4.73.59-5.58-2.16-.71-2.3.47-3.44,3.66-4.43a21.28,21.28,0,0,1,4.5-.86l.91,2.94-2.19.68-.51-1.64a17.32,17.32,0,0,0-2.23.51c-1.66.52-2.1.93-1.76,2s.86,1.17,3,.77c3.44-.66,4.77-.76,5.63,2C117.19,25.93,116.15,27,112.43,28.17Z" style="fill:#984"/><path d="M128.15,24.22l-.32-1.74,1.8-.33-1-1.58-4.32.79L124,23.19l1.71-.31.32,1.74-5,.91-.33-1.83,1.12-.2,2.09-10.2,2.72-.5,5.58,8.8,1.17-.21.33,1.83ZM127.09,18c-.27-.43-1.46-2.43-1.64-2.73,0,.36-.48,2.66-.56,3.11l-.27,1.42,3.2-.58Z" style="fill:#984"/><path d="M144.8,14.77l-.12-2-4.21.26.19,3,3.09-.19.11,1.78-3.09.19.18,2.9,1.59-.1.11,1.86-5.21.32L137.32,21l1.2-.07-.47-7.68-1.2.07-.12-1.89,10.13-.62.23,3.82Z" style="fill:#984"/><path d="M151.84,22.2l.1-1.86,1.2.06.4-7.68-1.2-.06.1-1.89,10.13.53-.2,3.82L160.08,15l.11-2L156,12.76l-.15,2.9,3.22.17-.09,1.73-3.22-.17-.17,3.23,4.21.22.12-2.33,2.29.12L162,22.73Z" style="fill:#984"/><path d="M176.95,17.26l.36-2.09-2.23-.39-1.35,7.78,1.43.25-.31,1.82-5.25-.91.32-1.83,1.43.25,1.35-7.78L170.48,14l-.37,2.11L168,15.71l.65-3.77,11.07,1.92-.65,3.77Z" style="fill:#984"/><path d="M195,20.09l-5.21,4-.68,2.23,1.47.45L190,28.56,184.74,27l.54-1.78,1.47.45.66-2.18-2-6.27-1.06-.32.55-1.81,5,1.51-.52,1.72-1.38-.42.34,1c.22.69.84,2.72,1,3.32.42-.36,2.16-1.78,2.71-2.18l.89-.68-1.47-.45L192,17.2l4.61,1.4L196,20.41Z" style="fill:#984"/><path d="M221.93,44.22,223,42.73l.94.7,4.58-6.18-.94-.7L228.75,35l7.9,5.86L234.37,44l-1.79-1.33L233.79,41l-3.29-2.44-1.73,2.33,2.51,1.86-1,1.39-2.51-1.86-1.93,2.6,3.29,2.44,1.39-1.87,1.79,1.33-2.44,3.29Z" style="fill:#984"/><path d="M238.06,57.38l1.18-1.25,1,.94.44-3.82-3.79.66,1,.92-1.18,1.25-3.33-3.14,1.28-1.35.73.69,5-.75.45-4.72-.76-.72,1.3-1.38L245,48.19l-1.2,1.27-.93-.87-.39,3.59,3.59-.61-1-.86,1.21-1.28,3.35,3.16L248.35,54l-.79-.75-4.72.72-.51,4.91.86.81L241.91,61Z" style="fill:#984"/><path d="M248,68.29c-2.13-2.55-2.5-4.71,1.16-7.77s5.79-2.27,7.89.24a16.56,16.56,0,0,1,2.37,3.67l-2.66,2.23-1.43-1.71,1.45-1.21A14.93,14.93,0,0,0,255.59,62c-1.31-1.57-2.56-1.43-4.46.15l-.65.54c-1.86,1.55-2.3,2.85-1,4.44A14,14,0,0,0,251,68.6l1.68-1.4,1.43,1.71-2.87,2.4A17.82,17.82,0,0,1,248,68.29Z" style="fill:#984"/><path d="M253.84,75.37l1.55-1,.64,1,6.42-4.23-.64-1,1.58-1,5.42,8.22-3.2,2.11-1.23-1.86,1.7-1.12L263.83,73l-2.43,1.6,1.72,2.61-1.45,1L260,75.55l-2.7,1.78,2.25,3.42,1.95-1.28,1.23,1.86-3.42,2.25Z" style="fill:#984"/><path d="M261.66,87.72l1.66-.84.53,1,6.86-3.48-.53-1,1.69-.86,2.32,4.58L272.5,88l-.73-1.45-6.9,3.5,1.85,3.65,2-1,1,2-3.65,1.85Z" style="fill:#984"/><path d="M267.86,100.5l1.74-.65.41,1.09,7.21-2.69-.41-1.09,1.77-.66,1.8,4.82-1.77.66-.57-1.52-7.25,2.7,1.43,3.84,2.14-.8.78,2.09-3.84,1.43Z" style="fill:#984"/><path d="M272.58,113.85l1.81-.45.28,1.13,7.47-1.85-.28-1.13,1.84-.46,2.37,9.55-3.72.92-.54-2.16,2-.49-1-4-2.82.7.75,3-1.68.42-.75-3-3.14.78,1,4,2.26-.56.54,2.16-4,1Z" style="fill:#984"/><path d="M286.64,137.39l-9.48,1.17-.28-2.24,7.86-6.35c-.4.09-3.7.52-4.29.59l-2.37.29.17,1.35-1.85.23-.56-4.54,1.85-.23.14,1.16,7.63-.94-.14-1.16,1.88-.23.48,3.94-7.06,5.71c.41-.11,3-.45,3.78-.54l2-.24-.16-1.29,1.88-.23.55,4.44-1.88.23Z" style="fill:#984"/><path d="M277.38,149.6c-.05-3.32,1-5.23,5.79-5.31s5.92,1.88,6,5.15a16.56,16.56,0,0,1-.46,4.34l-3.47.06,0-2.23,1.89,0a14.89,14.89,0,0,0,.15-2.14c0-2-1.09-2.73-3.56-2.69h-.84c-2.42,0-3.58.77-3.55,2.83a14.08,14.08,0,0,0,.21,2.1l2.19,0,0,2.23L278,154A17.81,17.81,0,0,1,277.38,149.6Z" style="fill:#984"/><path d="M277.32,158.45l1.85.2-.13,1.16,7.64.84.13-1.16,1.88.21-1.07,9.78-3.81-.42.24-2.22,2,.22.45-4.07-2.89-.32-.34,3.11-1.72-.19.34-3.11-3.22-.35-.45,4.07,2.32.25-.24,2.22-4.07-.45Z" style="fill:#984"/><path d="M11.76,152.81l1.78,0v.8l2.67-2,0-2.16-2.7,0,0,1.14-1.78,0-.08-4.74,1.88,0,0,1.2,7.77-.13,0-1.2,1.91,0s.06,3.77.11,6.63c0,2.47-.44,4-3.47,4-1.91,0-2.85-.58-3.27-2.2l-2.87,2.16,0,1.23-1.88,0Zm9.75-.49,0-3-3.63.06c0,.7,0,2.52,0,3,0,.89.36,1.56,1.86,1.53S21.52,153.22,21.51,152.32Z" style="fill:#984"/><path d="M12.33,163.52l1.86-.26.17,1.19L22,163.38l-.17-1.19,1.89-.26L25.16,172l-3.83.53L21,170.23l2-.28-.58-4.18-2.91.4.44,3.19-1.74.24-.44-3.19-3.24.45.58,4.18,2.33-.32.32,2.28-4.1.57Z" style="fill:#984"/><path d="M15.1,180.47l1.81-.48.31,1.16,7.5-2L24.42,178l1.85-.49,1.37,5.12-1.85.49-.43-1.62-7.55,2,1.09,4.08,2.23-.59.59,2.22-4,1.06Z" style="fill:#984"/><path d="M21.67,201.18l1.66-.66.67,1.7,1.38-1.28-1.61-4.09H21.89l.64,1.61-1.66.66L19,194.4l1.75-.69.42,1.06,10.5,0,1,2.57L25,204.6l.44,1.11-1.75.69Zm6-2.27c.37-.35,2.13-1.92,2.39-2.15-.36,0-2.73.05-3.18.06l-1.45,0,1.19,3Z" style="fill:#984"/><path d="M36.27,213.91l1.9-1-1.06-2-7,3.74.68,1.28-1.65.87-2.5-4.71,1.66-.88.68,1.28,7-3.74-1.06-2-1.91,1-1-1.9,3.42-1.81L40.69,214l-3.42,1.81Z" style="fill:#984"/><path d="M43.91,222.37l-6.44,4.33.79,1.17-1.56,1-2.92-4.35,1.56-1,.79,1.17,6.44-4.33-.78-1.17,1.58-1.07,2.92,4.35-1.58,1.07Z" style="fill:#984"/><path d="M44,238.68c-2.11-2.51-2.84-4.88,1-8.1s6.06-2.06,8.17.45,2.86,4.86-1,8.08S46.09,241.2,44,238.68Zm6.87-1.76c2.13-1.79,2.15-3.09.81-4.68s-2.57-1.78-4.7,0l-.65.55c-2.13,1.79-2.21,3.12-.87,4.71s2.63,1.75,4.75,0Z" style="fill:#984"/><path d="M66.61,247.71l-6.54,7.09-1.71-1.58,1.83-10.1c-.24.33-2.51,2.82-2.92,3.26l-1.64,1.78,1,1-1.27,1.38-3.47-3.2,1.27-1.38.88.82L59.34,241l-.88-.82,1.29-1.4,3,2.77-1.63,9.08c.24-.36,2-2.3,2.55-2.88l1.37-1.49-1-.91,1.29-1.4,3.39,3.12-1.29,1.4Z" style="fill:#984"/><path d="M70.09,262.68a23.66,23.66,0,0,1-3.57-3.07l2-2.81,1.87,1.33-1.15,1.62a13.8,13.8,0,0,0,1.86,1.57c1.73,1.23,2.35,1.26,3.11.19s.35-1.34-1.3-2.84c-2.75-2.49-3.33-3.41-1.65-5.78,1.41-2,3-1.74,5.76.2a21.06,21.06,0,0,1,3.41,3.06l-1.8,2.54-1.87-1.33,1-1.42A17.25,17.25,0,0,0,76,254.47c-1.42-1-2-1.1-2.68-.16s-.42,1.4,1.21,2.87c2.62,2.34,3.5,3.33,1.8,5.73C74.76,265.1,73.26,264.93,70.09,262.68Z" style="fill:#984"/><path d="M86.15,272.38l.88-1.66,1.24.66,1.53-2.87-4.4-2.35L83.87,269l1.24.66-.88,1.66L79.79,269l.88-1.66,1.06.57L85.39,261l-1.06-.57.9-1.69,4.44,2.37-.9,1.69-1.24-.66-1.3,2.44,4.4,2.35,1.3-2.44-1.24-.66.9-1.69L96,264.56l-.9,1.69-1.06-.57-3.66,6.85,1.06.57-.88,1.66Z" style="fill:#984"/><path d="M103.95,269.88l-2.86,7.22,1.31.52-.69,1.75-4.87-1.93.69-1.75,1.31.52L101.7,269l-1.31-.52.7-1.78,4.87,1.93-.7,1.78Z" style="fill:#984"/><path d="M115.86,279.57l-2.88-.79-.6,2.18,1.57.43-.49,1.77-5.05-1.39.5-1.81,1.16.32,2.06-7.49-1.16-.32.51-1.84,6.39,1.76c2.38.66,3.71,1.56,2.86,4.64S118.24,280.22,115.86,279.57Zm1.5-5.47-2.88-.79-1,3.75,2.91.8c.86.24,1.61,0,2-1.46S118.22,274.34,117.36,274.1Z" style="fill:#984"/><path d="M129.12,286.62a23.65,23.65,0,0,1-4.57-1.14l.52-3.4,2.27.35-.3,2a13.76,13.76,0,0,0,2.36.57c2.1.32,2.66.07,2.86-1.22s-.28-1.35-2.44-2c-3.58-1-4.51-1.55-4.07-4.42.37-2.4,1.93-2.91,5.24-2.41a21.08,21.08,0,0,1,4.42,1.2l-.47,3.07-2.27-.35.26-1.72a17.2,17.2,0,0,0-2.23-.52c-1.72-.26-2.3-.08-2.47,1.06s.25,1.44,2.36,2c3.39.91,4.62,1.41,4.18,4.31C134.37,286.69,133,287.21,129.12,286.62Z" style="fill:#984"/><path d="M178.94,277.27l-.41-2.09-2.22.43,1.51,7.75,1.43-.28.35,1.81-5.23,1-.36-1.83,1.43-.28-1.51-7.75-2.21.43.41,2.1L170,279l-.73-3.76,11-2.15.73,3.76Z" style="fill:#984"/><path d="M188.53,282.74,188,281l1.14-.37-2.4-7.31-1.14.38-.59-1.8,9.64-3.16,1.19,3.64-2.18.72-.63-1.93-4,1.31.91,2.76,3.06-1,.54,1.65-3.06,1,1,3.08,4-1.31-.73-2.21,2.18-.72,1.28,3.89Z" style="fill:#984"/><path d="M210,274.48l-.75-1.6,1.65-.78-1.36-1.28-4,1.87.12,1.86,1.57-.74.75,1.6-4.59,2.17-.79-1.68,1-.49-.6-10.4,2.5-1.18,7.65,7.07,1.07-.51.79,1.68Zm-2.62-5.74c-.37-.34-2-2-2.29-2.22,0,.36.22,2.7.26,3.14l.11,1.44,2.94-1.39Z" style="fill:#984"/><path d="M227.93,264.22l-1-1.56,1.1-.72-1.54-2.35c-.56-.86-2.06-3.21-2.41-3.77.17.6.78,3.6,1,4.66l.62,2.77-1.92,1.26-2.3-1.67c-.84-.61-3.38-2.4-3.85-2.8.38.55,1.95,2.89,2.49,3.72l1.54,2.35,1.1-.72,1,1.56-3.82,2.5-1-1.56,1-.66-4.21-6.44-1,.66-1-1.58,3.92-2.57,3.24,2.25a31.1,31.1,0,0,1,2.58,1.9c-.16-.47-.54-2.37-.69-3.11l-.81-3.86,3.85-2.52,1,1.58-1,.66,4.21,6.44,1-.66,1,1.56Z" style="fill:#984"/><path d="M241.73,240.7l4.69,8.73-2.06,1.85-3.26-2.05c-.48-.3-2.45-1.51-2.69-1.7.16.25,1.16,2.32,1.41,2.85l1.67,3.48-2,1.76-8.24-5.54-.85.76-1.26-1.41,4-3.6,1.2,1.34-1.27,1.14,3.18,2.25c.63.44,2.2,1.56,2.76,2-.4-.61-1.26-2.4-1.57-3.08l-1.73-3.68,1.58-1.42,3.52,2.11c.65.4,2.37,1.47,2.87,1.88-.37-.55-1.35-2.23-1.72-2.89L240.11,242l-1.28,1.15-1.2-1.34,3.64-3.27,1.26,1.41Z" style="fill:#984"/><path d="M256,239.26c-2.13,2.5-4.33,3.62-8.11.41s-3-5.59-.88-8.09,4.31-3.64,8.08-.43S258.17,236.74,256,239.26Zm-2.84-6.43c-2.1-1.78-3.38-1.58-4.72,0s-1.33,2.82.76,4.61l.64.55c2.1,1.78,3.41,1.63,4.76,0s1.3-2.88-.8-4.66Z" style="fill:#984"/><path d="M267,224.17l-1.48-1,.44-.67-3.32.2-1.18,1.8,2.24,1.46.62-1,1.48,1-2.59,4-1.56-1,.66-1-6.44-4.21-.66,1-1.58-1,3.62-5.55c1.35-2.07,2.6-3.06,5.11-1.42,1.58,1,2,2.06,1.45,3.64l3.56-.19.68-1,1.56,1Zm-8.26-5-1.65,2.52,3,2,1.66-2.54c.49-.75.58-1.49-.66-2.3S259.2,218.42,258.71,219.17Z" style="fill:#984"/><path d="M275.73,208.35l-1.59-.76.48-1-4.07.94.72,2.27,1.48.71.45-.93,1.59.76-2,4.17-1.68-.8.52-1.09-6.93-3.32-.52,1.09-1.71-.82,2-4.2,1.62.78-.46,1,3.76,1.8c-.1-.15-.77-2-1.1-3.09l-.81-2.59-.55,1.14-1.62-.78,2.17-4.52,1.71.82-.53,1.11,1.38,4.32,5.7-1.29.47-1,1.68.8Z" style="fill:#984"/><path d="M150.34,270.91A121.42,121.42,0,1,1,271.76,149.49,121.56,121.56,0,0,1,150.34,270.91Z" style="fill:none;stroke:#984;stroke-width:1.1025805848234px"/><polygon points="209.12 28.61 207.19 29.84 207.46 32.1 209.65 33.15 211.58 31.93 211.32 29.66 209.12 28.61" style="fill:#984"/><polygon points="87.52 30.2 87.32 32.48 89.29 33.65 91.45 32.53 91.64 30.26 89.68 29.09 87.52 30.2" style="fill:#984"/><polygon points="151.65 284.35 150.43 282.42 151.63 280.48 154.06 280.47 155.28 282.4 154.08 284.34 151.65 284.35" style="fill:#998042"/><polygon points="17.31 127.8 19.01 129.33 21.13 128.46 21.54 126.06 19.84 124.54 17.72 125.41 17.31 127.8" style="fill:#984"/><polygon points="279.23 188.07 277.02 188.65 275.53 186.91 276.26 184.59 278.47 184.01 279.95 185.75 279.23 188.07" style="fill:#984"/><path d="M201,62.48H99.49a7.86,7.86,0,0,0-7.85,7.85V171.91a7.86,7.86,0,0,0,7.85,7.85H201a7.86,7.86,0,0,0,7.85-7.85V70.33A7.86,7.86,0,0,0,201,62.48Zm-70.34,51.19-5.53,9.11,5.53,9.11v29.23h-19a2,2,0,0,1-2-2V150.2a2,2,0,0,1,2-2h4.65V97.36h-4.65a2,2,0,0,1-2-2V86.44a2,2,0,0,1,2-2h19ZM181.46,159a2,2,0,0,1-2,2H155.64L132.36,122.7l23.28-38.34h23.81a2,2,0,0,1,2,2v8.92a2,2,0,0,1-2,2h-1.61l-14.58,0-15.19,25.4,15.19,25.4h14.58l1.61,0a2,2,0,0,1,2,2Zm4.91-29.41h-8.72l-4.36-6.95,4.36-7h8.72l4.36,7Z" style="fill:#984"/><polygon points="88.13 207.75 88.6 207.75 88.6 207.32 87.55 207.32 87.55 215.81 88.13 215.81 88.13 207.75" style="fill:#ad9968"/><path d="M84.34,209.5v-1.75h.48v-.43H83.76v1.61c0,.32-.13.45-.45.45h-.67v.14a.4.4,0,0,0,0,.2l0,.07h.06l.18,0H84C84.27,209.81,84.34,209.74,84.34,209.5Z" style="fill:#ad9968"/><path d="M89.33,216.51h-.2v.8c0,.4-.12.52-.52.52H84.08V218c0,.29.18.29.38.29h4.86c.32,0,.38-.06.38-.38v-1C89.71,216.57,89.65,216.51,89.33,216.51Z" style="fill:#ad9968"/><path d="M90.84,205.78h-.27v3.15c0,.32-.13.45-.45.45h-.67v.14a.35.35,0,0,0,0,.22l0,.05h0l.18,0h1.07c.25,0,.31-.06.31-.31v-3.41C91.15,205.84,91.09,205.78,90.84,205.78Z" style="fill:#ad9968"/><path d="M98,207.67h.74c.39,0,.52-.13.52-.52v-.06a.67.67,0,0,1-.16-.5v-.86a.66.66,0,0,0-.36-.08h-.06v.94c0,.47-.18.66-.66.66h-.6V210H98Z" style="fill:#ad9968"/><polygon points="98.03 212.93 100.38 212.93 100.38 212.5 97.45 212.5 97.45 215.67 98.03 215.67 98.03 212.93" style="fill:#ad9968"/><path d="M104.76,216.37h-.06v.94c0,.47-.18.66-.66.66H100c0,.32.16.43.52.43h4.26c.39,0,.52-.13.52-.52v-1C105.28,216.5,105.15,216.37,104.76,216.37Z" style="fill:#ad9968"/><path d="M104.76,205.64h-.06v.94c0,.47-.18.66-.66.66h-.65v8.43H104v-8h.79c.39,0,.52-.13.52-.52v-1C105.28,205.77,105.15,205.64,104.76,205.64Z" style="fill:#ad9968"/><path d="M99.12,216.45a.66.66,0,0,0-.36-.08h-.06v.94c0,.47-.18.66-.66.66H94c0,.32.16.43.52.43h4.26c.39,0,.52-.13.52-.52v-.06a.67.67,0,0,1-.16-.5Z" style="fill:#ad9968"/><polygon points="112.31 207.88 113.5 207.88 113.5 207.46 111.73 207.46 111.73 209.91 112.31 209.91 112.31 207.88" style="fill:#ad9968"/><path d="M112.31,212.86h3c.39,0,.52-.13.52-.52v-1.2c0-.4-.12-.52-.52-.52h-.06v1.16c0,.47-.18.66-.66.66h-2.82v3h.58Z" style="fill:#ad9968"/><path d="M116.07,214.5H116v2.82c0,.47-.18.66-.64.66h-7.11c0,.32.16.43.52.43h7.31c.39,0,.5-.12.5-.52V215C116.59,214.61,116.48,214.5,116.07,214.5Z" style="fill:#ad9968"/><path d="M116.07,205.64H116v2.65c0,.58-.32.66-.66.66h-1c0,.32.16.43.52.43h1.2c.34,0,.52-.08.52-.52v-2.77C116.59,205.71,116.41,205.64,116.07,205.64Z" style="fill:#ad9968"/><path d="M136.13,207.6c.36,0,.45-.09.45-.45v-1c0-.36-.09-.45-.44-.45v.87c0,.52-.21.73-.73.73h-.62l-3.06,3.87.26.38,3.38-4Z" style="fill:#ad9968"/><polygon points="130.04 213.72 129.46 212.96 129.46 215.67 130.04 215.67 130.04 213.72" style="fill:#ad9968"/><path d="M136.35,216.37h-.06v.94c0,.47-.18.66-.66.66h-1.71l.12.17a.49.49,0,0,0,.51.26h1.79c.39,0,.52-.13.52-.52v-1C136.87,216.46,136.68,216.37,136.35,216.37Z" style="fill:#ad9968"/><path d="M130.78,205.64h-.06v.94c0,.47-.18.66-.66.66h-.6v2.67l.58-.79v-1.45h.74a.57.57,0,0,0,.4-.11l0,0a.6.6,0,0,0,.1-.38v-1C131.3,205.77,131.17,205.64,130.78,205.64Z" style="fill:#ad9968"/><path d="M130.78,216.37h-.06v.94c0,.47-.18.66-.66.66H126c0,.32.16.43.52.43h4.26c.39,0,.52-.13.52-.52v-1C131.3,216.5,131.17,216.37,130.78,216.37Z" style="fill:#ad9968"/><path d="M143.34,212.86h3c.39,0,.52-.13.52-.52v-1.2c0-.4-.12-.52-.52-.52h-.06v1.16c0,.47-.18.66-.66.66h-2.82v3h.58Z" style="fill:#ad9968"/><polygon points="143.34 207.88 144.52 207.88 144.52 207.46 142.76 207.46 142.76 209.91 143.34 209.91 143.34 207.88" style="fill:#ad9968"/><path d="M147.1,214.5H147v2.82c0,.47-.18.66-.64.66H139.3c0,.32.16.43.52.43h7.31c.39,0,.5-.12.5-.52V215C147.62,214.61,147.5,214.5,147.1,214.5Z" style="fill:#ad9968"/><path d="M147.1,205.64H147v2.65c0,.58-.32.66-.66.66h-1c0,.32.16.43.52.43h1.2c.34,0,.52-.08.52-.52v-2.77C147.62,205.71,147.44,205.64,147.1,205.64Z" style="fill:#ad9968"/><polygon points="154.98 213.24 155.05 213.24 154.83 212.81 154.4 212.81 154.4 215.67 154.98 215.67 154.98 213.24" style="fill:#ad9968"/><path d="M159.77,215.67l-1.69-2.95.18-.1a3.43,3.43,0,0,0,1.84-3.33,3.38,3.38,0,0,0-1.18-2.84,4,4,0,0,1,.6,2.27,3.59,3.59,0,0,1-2,3.48l2,3.46Z" style="fill:#ad9968"/><path d="M155.7,216.37h-.06v.94c0,.47-.18.66-.66.66h-4c0,.32.16.43.52.43h4.24c.39,0,.52-.13.52-.52v-1C156.22,216.5,156.09,216.37,155.7,216.37Z" style="fill:#ad9968"/><path d="M154.8,207.4h-.4v2.95H155v-2.51h.54a4.52,4.52,0,0,1,.8.06C156.07,207.49,155.58,207.4,154.8,207.4Z" style="fill:#ad9968"/><path d="M160.93,216.37h-.06v.94c0,.47-.18.66-.66.66H158l.06.13c.14.26.21.3.53.3h2.33c.39,0,.52-.13.52-.52v-1C161.45,216.5,161.32,216.37,160.93,216.37Z" style="fill:#ad9968"/><polygon points="167.93 213.24 168 213.24 167.79 212.81 167.35 212.81 167.35 215.67 167.93 215.67 167.93 213.24" style="fill:#ad9968"/><path d="M172.72,215.67,171,212.73l.18-.1a3.43,3.43,0,0,0,1.84-3.33,3.38,3.38,0,0,0-1.18-2.84,4,4,0,0,1,.6,2.27,3.59,3.59,0,0,1-2,3.48l2,3.46Z" style="fill:#ad9968"/><path d="M167.75,207.4h-.4v2.95h.58v-2.51h.54a4.52,4.52,0,0,1,.8.06C169,207.49,168.53,207.4,167.75,207.4Z" style="fill:#ad9968"/><path d="M173.88,216.37h-.06v.94c0,.47-.18.66-.66.66H171l.06.13c.14.26.21.3.53.3h2.33c.39,0,.52-.13.52-.52v-1C174.4,216.5,174.27,216.37,173.88,216.37Z" style="fill:#ad9968"/><path d="M168.65,216.37h-.06v.94c0,.47-.18.66-.66.66h-4c0,.32.16.43.52.43h4.24c.39,0,.52-.13.52-.52v-1C169.17,216.5,169,216.37,168.65,216.37Z" style="fill:#ad9968"/><path d="M191.26,212.56c.06-.49.13-.93.19-1.29v-.06l-1.14-5.15c0-.26-.11-.42-.52-.42h0l1.25,5.62C191.11,211.61,191.19,212.05,191.26,212.56Z" style="fill:#ad9968"/><path d="M185.44,212.65c.09-.49.18-1,.27-1.36l-1-5.25c0-.31-.15-.4-.46-.4h-.08l1.05,5.63C185.32,211.69,185.38,212.17,185.44,212.65Z" style="fill:#ad9968"/><path d="M188.32,210.47c-.06.36-.13.69-.2,1l-1.47,6.27c-.07.37-.19.54-.67.54h-1.38v0a.46.46,0,0,0,.53.4h1.57c.41,0,.47-.12.53-.43l1.42-6-.15-.79C188.43,211.16,188.37,210.82,188.32,210.47Z" style="fill:#ad9968"/><path d="M196.16,205.64H196v1c0,.41-.17.58-.58.58H195l-2.39,10.5c-.1.36-.24.54-.67.54h-1.38c.06.31.13.43.53.43h1.57c.35,0,.45-.13.54-.45l2.41-10.59h.56c.33,0,.45-.12.45-.45v-1.13C196.61,205.77,196.48,205.64,196.16,205.64Z" style="fill:#ad9968"/><path d="M202.13,210.46l-.19-.8c-.06-.22-.11-.47-.16-.74-.05.28-.11.53-.16.75l-.71,2.79h.72Z" style="fill:#ad9968"/><path d="M207,215.67,204.15,206c-.09-.32-.19-.39-.52-.39l3,10Z" style="fill:#ad9968"/><path d="M207.75,216.37h-.06v.94c0,.47-.18.66-.66.66h-3.59c0,.32.16.43.52.43h3.79c.39,0,.52-.13.52-.52v-1C208.27,216.5,208.15,216.37,207.75,216.37Z" style="fill:#ad9968"/><path d="M201.19,216.37h-.06v.94c0,.47-.18.66-.66.66h-3.41c0,.32.16.43.52.43h3.61c.39,0,.52-.13.52-.52v-1C201.71,216.5,201.59,216.37,201.19,216.37Z" style="fill:#ad9968"/><path d="M200.49,214.64l-.26,1h.25a.79.79,0,0,1,.44.1l.18-.71h2.21l-.11-.43Z" style="fill:#ad9968"/><path d="M213.39,209.53l.16-.46-.08-.16L212,206c-.12-.26-.18-.31-.45-.32l1.28,2.64A11.11,11.11,0,0,1,213.39,209.53Z" style="fill:#ad9968"/><path d="M216.52,216.37h-.06v.94c0,.47-.18.66-.66.66h-4.74c0,.32.16.43.52.43h4.94c.39,0,.52-.13.52-.52v-1C217,216.5,216.91,216.37,216.52,216.37Z" style="fill:#ad9968"/><path d="M218.65,205.64h-.13v1c0,.41-.17.58-.58.58h-.41l-2.68,5.4v3h.58l0-2.54,2.71-5.46h.5c.33,0,.45-.12.45-.45v-1.13C219.09,205.76,219,205.64,218.65,205.64Z" style="fill:#ad9968"/></svg>