<svg xmlns="http://www.w3.org/2000/svg" viewBox="0 0 300 300"><title>kerrSymbols</title><polygon points="193.65 81.75 187 92.35 193.65 102.96 206.96 102.96 213.62 92.35 206.96 81.75 193.65 81.75" style="fill:#004126"/><path d="M196.41,131.17l-2.45,0H171.71L148.53,92.39l23.18-38.76,22.24,0h2.45a3.06,3.06,0,0,0,3.06-3.06V36.94a3.06,3.06,0,0,0-3.06-3.06H160.08l-35.52,58.5,35.52,58.5h36.33a3.06,3.06,0,0,0,3.06-3.06v-13.6A3.06,3.06,0,0,0,196.41,131.17Z" style="fill:#004126"/><path d="M114.9,34H93a3.06,3.06,0,0,0-3.06,3.06v13.6A3.06,3.06,0,0,0,93,53.73h7.1v77.55H93a3.06,3.06,0,0,0-3.06,3.06v13.6A3.06,3.06,0,0,0,93,151l7.1,0H122v-44.6l-8.44-13.9L122,78.62V34H114.9Z" style="fill:#004126"/><path d="M187.08,249.26h15.2c1.11,0,1.37-.2,1.37-1.37v-4.65c0-1.17-.26-1.37-1.37-1.37h-3.07V230.79h3.13l8.81,17.55c.46.85.46.91,1.5.91H220c1.11,0,1.37-.2,1.37-1.37V243.1c0-1.17-.26-1.37-1.37-1.37h-3l-6.87-12.5c2.41-1.24,7.44-3.65,7.44-12.07,0-12.27-10.18-12.59-15.21-12.59H187.08c-1.11,0-1.37.2-1.37,1.37v4.7c0,1.17.26,1.37,1.37,1.37h3.33v29.81h-3.33c-1.11,0-1.37.2-1.37,1.37v4.71C185.71,249.06,186,249.26,187.08,249.26ZM199.22,212h2.41c3.39,0,7.11-.39,7.11,5.28,0,6-3.59,6.66-7.83,6.66h-1.7Z" style="fill:#004126"/><path d="M149.43,249.26h15.2c1.11,0,1.37-.2,1.37-1.37v-4.65c0-1.17-.26-1.37-1.37-1.37h-3.07V230.79h3.13l8.81,17.55c.46.85.46.91,1.5.91h7.33c1.11,0,1.37-.2,1.37-1.37V243.1c0-1.17-.26-1.37-1.37-1.37h-3l-6.87-12.5c2.42-1.24,7.44-3.65,7.44-12.07,0-12.27-10.18-12.59-15.2-12.59H149.43c-1.11,0-1.37.2-1.37,1.37v4.7c0,1.17.26,1.37,1.37,1.37h3.33v29.81h-3.33c-1.11,0-1.37.2-1.37,1.37v4.71C148.06,249.06,148.32,249.26,149.43,249.26ZM161.57,212H164c3.39,0,7.11-.39,7.11,5.28,0,6-3.59,6.66-7.83,6.66h-1.7Z" style="fill:#004126"/><path d="M108,249.32h3.37a1.17,1.17,0,0,0,1.17-1.17v-5.21a1.17,1.17,0,0,0-1.17-1.17H108l-8.88-14.84L108,212.07h3.45a1.17,1.17,0,0,0,1.17-1.17v-5.21a1.17,1.17,0,0,0-1.17-1.17H103.5l-13.6,22.4,13.6,22.4Z" style="fill:#004126"/><path d="M78.45,249.31H89.58V232.24l-3.23-5.32,3.23-5.32V204.51H78.45a1.17,1.17,0,0,0-1.17,1.17v5.21a1.17,1.17,0,0,0,1.17,1.17h2.87v29.7H78.45a1.17,1.17,0,0,0-1.17,1.17v5.21A1.17,1.17,0,0,0,78.45,249.31Z" style="fill:#004126"/><path d="M116.82,249.21H143c1.11,0,1.3-.19,1.3-1.37V237.59c0-1.18-.19-1.37-1.37-1.37h-4.31c-1.24,0-1.37.26-1.37,1.37v4.32H129V231h11.09c1.11,0,1.37-.2,1.37-1.37v-4.31c0-1.17-.2-1.37-1.37-1.37H129V212h8.29v3.54c0,1.17.26,1.37,1.37,1.37h4.31c1,0,1.37-.2,1.37-1.37v-9.92c0-1-.33-1.11-1.37-1.11h-26.1c-1.11,0-1.37.2-1.37,1.37v4.75c0,1.17.26,1.37,1.37,1.37h3.33v29.81h-3.33c-1.11,0-1.37.2-1.37,1.37v4.66C115.45,249,115.71,249.21,116.82,249.21Z" style="fill:#004126"/><path d="M83.42,273.82c2,0,4.09-.61,4.09-1.31v-3.27c0-.29-.07-.38-.4-.38H85.36c-.33,0-.4.09-.4.38v2a5.84,5.84,0,0,1-1.24.11c-2.79,0-3.33-2.28-3.33-6.13s1-5.21,3.15-5.21a3.88,3.88,0,0,1,1.24.2v1.87c0,.32.07.38.4.38h1.74c.3,0,.4-.07.4-.38v-3c0-.83-2.3-1.49-3.94-1.49-4.23,0-6.32,3-6.32,8.23C77.05,271.25,79.1,273.82,83.42,273.82Z" style="fill:#004126"/><path d="M95.51,273.82c3.64,0,5.85-2.64,5.85-8.09s-2.23-8.11-5.85-8.11-5.85,2.64-5.85,8.11S91.87,273.82,95.51,273.82Zm0-13.84c1.76,0,2.51,2.21,2.51,5.75s-.75,5.73-2.51,5.73S93,269.25,93,265.73,93.75,260,95.51,260Z" style="fill:#004126"/><path d="M116.52,258h-5.07c-.4,0-.49.07-.49.47v1.22c0,.41.09.47.49.47h1.17v5.45c0,.72.09,2.21.09,2.93h0a17.7,17.7,0,0,0-1.41-3.27l-3.9-7c-.14-.25-.19-.29-.54-.29h-3.62c-.4,0-.49.07-.49.47v1.22c0,.41.09.47.49.47h1.2v11.11h-1.2c-.4,0-.49.07-.49.47V273c0,.4.09.47.49.47h5.07c.4,0,.49-.07.49-.47v-1.22c0-.41-.09-.47-.49-.47h-1.17v-6.42c0-1-.12-1.74-.12-2.48h0a14.92,14.92,0,0,0,1.39,3.07l4.32,7.69c.14.27.21.32.54.32h1.55c.42,0,.49-.07.49-.47v-12.8h1.2c.4,0,.49-.07.49-.47v-1.22C117,258.07,116.92,258,116.52,258Z" style="fill:#004126"/><path d="M128.92,258H118.76c-.33,0-.4.07-.4.38v4.22c0,.31.07.38.4.38h1.39c.3,0,.4-.07.4-.38v-2.16h1.71v10.84H120.7c-.4,0-.49.07-.49.47V273c0,.4.09.47.49.47H127c.4,0,.49-.07.49-.47v-1.22c0-.41-.09-.47-.49-.47h-1.55V260.43h1.71v2.16c0,.31.07.38.4.38h1.38c.31,0,.4-.07.4-.38v-4.22C129.32,258.07,129.23,258,128.92,258Z" style="fill:#004126"/><path d="M143.76,271.27h-1.08l-2.84-4.76a4.15,4.15,0,0,0,2.68-4.17c0-4.24-3.66-4.35-5.47-4.35h-5.49c-.4,0-.49.07-.49.47v1.22c0,.41.09.47.49.47h1.2v11.11h-1.2c-.4,0-.49.07-.49.47V273c0,.4.09.47.49.47H137c.4,0,.49-.07.49-.47v-1.22c0-.41-.09-.47-.49-.47h-1.1v-4.22H137l3.17,6.06c.16.29.16.32.54.32h3c.4,0,.49-.07.49-.47v-1.22C144.26,271.34,144.16,271.27,143.76,271.27Zm-7.23-6.58h-.61v-4.33h.87c1.22,0,2.56.07,2.56,2S138.06,264.69,136.53,264.69Z" style="fill:#004126"/><path d="M145.52,273.44h4.65c.4,0,.49-.07.49-.47v-1.22c0-.41-.09-.47-.49-.47h-.77l.52-2h4l.54,2h-.75c-.4,0-.49.07-.49.47V273c0,.4.09.47.49.47h4.88c.4,0,.49-.07.49-.47v-1.22c0-.41-.09-.47-.49-.47h-.8l-4-12.92c-.09-.32-.14-.36-.52-.36h-2.44c-.4,0-.42,0-.52.36l-4.11,12.92h-.7c-.4,0-.49.07-.49.47V273C145,273.37,145.13,273.44,145.52,273.44Zm5.78-10a23.45,23.45,0,0,0,.54-3.16h0a22.69,22.69,0,0,0,.52,3.16l1,3.88h-3.1Z" style="fill:#004126"/><path d="M169.83,268.86h-1.74c-.33,0-.4.09-.4.38v2a5.84,5.84,0,0,1-1.24.11c-2.79,0-3.33-2.28-3.33-6.13s1-5.21,3.15-5.21a3.88,3.88,0,0,1,1.24.2v1.87c0,.32.07.38.4.38h1.74c.3,0,.4-.07.4-.38v-3c0-.83-2.3-1.49-3.95-1.49-4.23,0-6.32,3-6.32,8.23,0,5.41,2,8,6.36,8,2,0,4.08-.61,4.08-1.31v-3.27C170.23,269,170.16,268.86,169.83,268.86Z" style="fill:#004126"/><path d="M182.53,258H172.37c-.33,0-.4.07-.4.38v4.22c0,.31.07.38.4.38h1.38c.31,0,.4-.07.4-.38v-2.16h1.71v10.84h-1.55c-.4,0-.49.07-.49.47V273c0,.4.09.47.49.47h6.27c.4,0,.49-.07.49-.47v-1.22c0-.41-.09-.47-.49-.47H179V260.43h1.71v2.16c0,.31.07.38.4.38h1.39c.3,0,.4-.07.4-.38v-4.22C182.93,258.07,182.84,258,182.53,258Z" style="fill:#004126"/><path d="M190.24,273.82c3.64,0,5.85-2.64,5.85-8.09s-2.23-8.11-5.85-8.11-5.85,2.64-5.85,8.11S186.6,273.82,190.24,273.82Zm0-13.84c1.76,0,2.51,2.21,2.51,5.75s-.75,5.73-2.51,5.73-2.51-2.21-2.51-5.73S188.48,260,190.24,260Z" style="fill:#004126"/><path d="M209.7,271.27h-1.08l-2.84-4.76a4.15,4.15,0,0,0,2.68-4.17c0-4.24-3.66-4.35-5.47-4.35h-5.49c-.4,0-.49.07-.49.47v1.22c0,.41.09.47.49.47h1.2v11.11h-1.2c-.4,0-.49.07-.49.47V273c0,.4.09.47.49.47H203c.4,0,.49-.07.49-.47v-1.22c0-.41-.09-.47-.49-.47h-1.1v-4.22H203l3.17,6.06c.16.29.16.32.54.32h3c.4,0,.49-.07.49-.47v-1.22C210.2,271.34,210.1,271.27,209.7,271.27Zm-7.23-6.58h-.61v-4.33h.87c1.22,0,2.56.07,2.56,2S204,264.69,202.47,264.69Z" style="fill:#004126"/><path d="M219.61,265.3c-2.07-1.47-4.81-1.78-4.81-3.49,0-1.35,1.13-1.76,2.21-1.76a4.46,4.46,0,0,1,1.57.29v1.8c0,.32.07.38.4.38h1.74c.3,0,.4-.07.4-.38v-3c0-.9-2.56-1.49-4.2-1.49-2.72,0-5.17,1.35-5.17,4.6a3.6,3.6,0,0,0,2,3.49c2.39,1.4,4.79,1.6,4.79,3.61a1.88,1.88,0,0,1-2.11,2.07,6.73,6.73,0,0,1-2.21-.45v-2.05c0-.32-.07-.38-.4-.38h-1.74c-.33,0-.4.09-.4.38v3.4c0,1,3.08,1.53,4.84,1.53,3,0,5.07-1.89,5.07-4.76A4.43,4.43,0,0,0,219.61,265.3Z" style="fill:#004126"/><path d="M227.66.53H72.18A11.64,11.64,0,0,0,60.54,12.17V287.89a11.64,11.64,0,0,0,11.64,11.64H227.66a11.64,11.64,0,0,0,11.64-11.64V12.17A11.64,11.64,0,0,0,227.66.53Zm7.56,287.36a7.57,7.57,0,0,1-7.56,7.56H72.18a7.57,7.57,0,0,1-7.56-7.56V182.44h170.6Zm0-109.54H64.62V12.17a7.57,7.57,0,0,1,7.56-7.56H227.66a7.57,7.57,0,0,1,7.56,7.56Z" style="fill:#004126"/></svg>