<svg xmlns="http://www.w3.org/2000/svg" viewBox="0 0 300 300"><title>kerrSymbols</title><path d="M78.16,119,57.89,152.39l20.27,33.39V292.87H25.46l-17.05,0a7.34,7.34,0,0,1-7.35-7.34V252.82a7.35,7.35,0,0,1,7.35-7.35H25.46V59.24H8.41A7.34,7.34,0,0,1,1.06,51.9V19.24a7.35,7.35,0,0,1,7.35-7.35H61l.58,0H78.16Z" style="fill:#004126"/><path d="M264.08,285.2a7.35,7.35,0,0,1-7.35,7.35H169.5L84.22,152.08,169.5,11.61h34l.58,0h52.62a7.35,7.35,0,0,1,7.35,7.35V51.59a7.35,7.35,0,0,1-7.35,7.35h-5.89L197.43,59l-55.66,93.07,55.66,93h53.42l5.89.07a7.34,7.34,0,0,1,7.35,7.34Z" style="fill:#004126"/><polygon points="282.08 177.45 250.12 177.45 234.14 151.99 250.12 126.53 282.08 126.53 298.06 151.99 282.08 177.45" style="fill:#004126"/></svg>