<svg xmlns="http://www.w3.org/2000/svg" viewBox="0 0 386.12 30.29"><title>kerrWordLogoKern</title><path d="M24.22.55H19.08L10.17,15.2l8.91,14.66h5.15a.77.77,0,0,0,.79-.75s0,0,0,0V25.6a.78.78,0,0,0-.77-.79H22l-5.82-9.7,5.84-9.7h2.18A.78.78,0,0,0,25,4.63s0,0,0,0V1.34a.78.78,0,0,0-.77-.79ZM2,1.34V4.71a.78.78,0,0,0,.77.79h1.9v19.4H2.74a.78.78,0,0,0-.79.77s0,0,0,0v3.37a.78.78,0,0,0,.77.79H10V18.67L7.89,15.2,10,11.74V.55H2.74A.78.78,0,0,0,2,1.32S1.95,1.34,2,1.34ZM46.8.55h-17c-.69,0-.89.1-.89.89V4.51c0,.79.2.89.89.89h2.18v19.5H29.77c-.69,0-.89.1-.89.89v3.07c0,.79.2.89.89.89H46.92c.69,0,.89-.1.89-.89V22.13c0-.79-.1-.89-.89-.89H44.14c-.79,0-.89.2-.89.89V25H37.81V17.88H45c.69,0,.89-.1.89-.89V14.21c0-.79-.1-.89-.89-.89H37.81V5.4h5.45V7.68c0,.79.2.89.89.89h2.77c.69,0,.89-.1.89-.89V1.24C47.69.65,47.49.55,46.8.55ZM75.51,24.81h-2l-4.45-8.12c1.58-.79,4.85-2.38,4.85-7.92,0-8-6.63-8.22-9.9-8.22H54c-.69,0-.89.1-.89.89V4.51c0,.79.2.89.89.89H56.2v19.5H54c-.69,0-.89.1-.89.89v3.07c0,.79.2.89.89.89h9.9c.69,0,.89-.1.89-.89V25.8c0-.79-.2-.89-.89-.89h-2V17.68H64l5.74,11.48c.3.59.3.59,1,.59h4.75c.69,0,.89-.1.89-.89V25.7C76.4,24.91,76.2,24.81,75.51,24.81ZM63,13.22H61.94V5.4h1.58c2.18,0,4.65-.3,4.65,3.47C68.18,12.83,65.81,13.22,63,13.22Zm39,11.58h-2L95.6,16.69c1.58-.79,4.85-2.38,4.85-7.92,0-8-6.63-8.22-9.9-8.22h-10c-.69,0-.89.1-.89.89V4.51c0,.79.2.89.89.89h2.18v19.5H80.58c-.69,0-.89.1-.89.89v3.07c0,.79.2.89.89.89h9.9c.69,0,.89-.1.89-.89V25.8c0-.79-.2-.89-.89-.89h-2V17.68h2.08l5.74,11.48c.3.59.3.59,1,.59h4.75c.69,0,.89-.1.89-.89V25.7C102.93,25,102.73,24.81,102,24.81ZM89.57,13.22H88.5V5.4h1.58c2.18,0,4.65-.3,4.65,3.47C94.71,12.83,92.34,13.22,89.57,13.22Zm45.2,7.92H131.5c-.59,0-.79.2-.79.69V25.7a9.64,9.64,0,0,1-2.38.2c-5.25,0-6.24-4.26-6.24-11.48s1.78-9.7,5.84-9.7a6.65,6.65,0,0,1,2.38.4V8.57c0,.59.1.69.79.69h3.27c.59,0,.79-.1.79-.69V2.93c0-1.58-4.26-2.77-7.42-2.77C119.82.16,116,5.8,116,15.5c0,10.1,3.86,14.95,11.88,14.95,3.76,0,7.62-1.19,7.62-2.47V21.84C135.46,21.34,135.36,21.14,134.77,21.14ZM150,.16c-6.73,0-10.89,4.95-10.89,15.15S143.28,30.45,150,30.45,160.9,25.5,160.9,15.3,156.75.16,150,.16ZM150,26c-3.27,0-4.65-4.16-4.65-10.69S146.75,4.51,150,4.51s4.65,4.16,4.65,10.79S153.28,26,150,26ZM189.9.85h-9.5c-.79,0-.89.1-.89.89V4c0,.79.2.89.89.89h2.15V15.1c0,1.39.2,4.16.2,5.44h-.1A30.36,30.36,0,0,0,180,14.41L172.65,1.34c-.3-.49-.4-.59-1-.59h-6.73c-.79,0-.89.1-.89.89V3.92c0,.79.2.89.89.89h2.28V25.6h-2.28c-.79,0-.89.1-.89.89v2.28c0,.79.2.89.89.89h9.5c.79,0,.89-.1.89-.89V26.49c0-.79-.2-.89-.89-.89h-2.18v-12c0-2-.2-3.27-.2-4.65h.1a29.29,29.29,0,0,0,2.57,5.74l8.12,14.36c.3.5.4.59,1,.59h2.87c.79,0,.89-.1.89-.89V4.91h2.28c.79,0,.89-.1.89-.89V1.74C190.79.95,190.59.85,189.9.85Zm24.51.1h-19c-.59,0-.79.1-.79.69V9.56c0,.59.1.69.79.69H198c.59,0,.79-.1.79-.69v-4h3.17v20.3h-2.87c-.79,0-.89.1-.89.89V29c0,.79.2.89.89.89h11.68c.79,0,.89-.1.89-.89V26.69c0-.79-.2-.89-.89-.89h-2.87V5.51h3.17V9.57c0,.59.1.69.79.69h2.57c.59,0,.79-.1.79-.69V1.65C215.11,1.06,214.91.95,214.41.95ZM242.06,25.8h-2l-5.35-8.91a7.85,7.85,0,0,0,5-7.82c0-7.92-6.83-8.12-10.2-8.12h-10.3c-.79,0-.89.1-.89.89V4.12c0,.79.2.89.89.89h2.28V25.8h-2.28c-.79,0-.89.1-.89.89V29c0,.79.2.89.89.89h10.2c.79,0,.89-.1.89-.89V26.69c0-.79-.2-.89-.89-.89h-2.08V17.88h2.08l5.94,11.39c.3.59.3.59,1,.59h5.64c.79,0,.89-.1.89-.89V26.69c.09-.78-.11-.88-.9-.88ZM228.6,13.52h-1.19V5.41H229c2.28,0,4.75.1,4.75,3.76.09,3.86-2.29,4.36-5.16,4.36ZM270.05,25.7h-1.49L261,1.54c-.2-.59-.3-.69-1-.69H255.5c-.79,0-.79.1-1,.69L246.79,25.7H245.5c-.79,0-.89.1-.89.89v2.28c0,.79.2.89.89.89h8.71c.79,0,.89-.1.89-.89V26.59c0-.79-.2-.89-.89-.89h-1.49l1-3.66h7.52l1,3.66h-1.39c-.79,0-.89.1-.89.89v2.28c0,.79.2.89.89.89H270c.79,0,.89-.1.89-.89V26.59C270.94,25.8,270.74,25.7,270.05,25.7Zm-15.64-7.52,2-7.23a57.17,57.17,0,0,0,1-5.94h.1a39.14,39.14,0,0,0,1,5.94l1.78,7.23Zm35.83,3H287c-.59,0-.79.2-.79.69V25.7a9.64,9.64,0,0,1-2.38.2c-5.25,0-6.24-4.26-6.24-11.48s1.78-9.7,5.84-9.7a5.81,5.81,0,0,1,2.28.4V8.57c0,.59.1.69.79.69h3.27c.59,0,.79-.1.79-.69V2.93c0-1.58-4.26-2.77-7.43-2.77-7.92,0-11.78,5.64-11.78,15.34,0,10.1,3.86,14.95,11.88,14.95,3.76,0,7.62-1.19,7.62-2.47V21.84C290.93,21.34,290.83,21.14,290.24,21.14ZM315,.85H296c-.59,0-.79.1-.79.69V9.46c0,.59.1.69.79.69h2.57c.59,0,.79-.1.79-.69V5.4h3.17V25.7h-2.87c-.79,0-.89.1-.89.89v2.28c0,.79.2.89.89.89h11.68c.79,0,.89-.1.89-.89V26.59c0-.79-.2-.89-.89-.89h-2.87V5.4h3.17V9.46c0,.59.1.69.79.69H315c.59,0,.79-.1.79-.69V1.54C315.68.95,315.48.85,315,.85ZM329.34.15c-6.73,0-10.89,5-10.89,15.15s4.16,15.15,10.89,15.15,10.89-4.95,10.89-15.15S336.17.16,329.34.15Zm0,25.84c-3.27,0-4.65-4.16-4.65-10.69s1.39-10.79,4.65-10.79S334,8.67,334,15.3,332.71,26,329.34,26Zm36.43-.3h-2l-5.35-8.91a7.85,7.85,0,0,0,5-7.82C363.5,1,356.67.85,353.3.85H343c-.79,0-.89.1-.89.89V4c0,.79.2.89.89.89h2.28V25.7H343c-.79,0-.89.1-.89.89v2.28c0,.79.2.89.89.89h10.2c.79,0,.89-.1.89-.89V26.59c0-.79-.2-.89-.89-.89h-2.08V17.78h2.08l5.94,11.38c.3.59.3.59,1,.59h5.64c.79,0,.89-.1.89-.89V26.59C366.69,25.8,366.57,25.7,365.77,25.7ZM352.21,13.42h-1.09V5.3h1.58c2.28,0,4.75.1,4.75,3.76.1,3.86-2.38,4.36-5.25,4.36Zm32.08,1.09c-3.86-2.77-9-3.37-9-6.53,0-2.57,2.08-3.27,4.16-3.27a7.53,7.53,0,0,1,3,.59V8.67c0,.59.1.69.79.69h3.29c.59,0,.79-.1.79-.69V2.93c0-1.68-4.75-2.77-7.82-2.77-5,0-9.7,2.57-9.7,8.61,0,3.47,1.49,5.15,3.86,6.53,4.46,2.57,8.91,3,8.91,6.73,0,2.57-1.49,3.86-4,3.86a10.89,10.89,0,0,1-4.16-.89V21.14c0-.59-.1-.69-.79-.69h-3.27c-.59,0-.79.2-.79.69v6.34c0,1.88,5.74,2.87,9,2.87,5.54,0,9.5-3.56,9.5-8.91a8.16,8.16,0,0,0-3.78-6.93Z" transform="translate(-1.95 -0.15)" style="fill:#fff"/></svg>