<svg xmlns="http://www.w3.org/2000/svg" viewBox="0 0 297.74 297.79"><title>kerrSymbols</title><path d="M277.8,0H19.94A20,20,0,0,0,0,19.94V277.85a20,20,0,0,0,19.94,19.94H277.8a20,20,0,0,0,19.94-19.94V19.94A20,20,0,0,0,277.8,0ZM101.42,128.24l-14,23.14,14,23.14v74.22H64.9l-11.82,0A5.09,5.09,0,0,1,48,243.61V221a5.09,5.09,0,0,1,5.09-5.09H64.9V86.82H53.08A5.09,5.09,0,0,1,48,81.73V59.09A5.09,5.09,0,0,1,53.08,54H89.55l.4,0h11.47ZM230.27,243.42a5.09,5.09,0,0,1-5.09,5.09H164.73l-59.11-97.36,59.11-97.36h23.59l.4,0h36.47a5.09,5.09,0,0,1,5.09,5.09V81.52a5.09,5.09,0,0,1-5.09,5.09H221.1l-37,0-38.57,64.5,38.57,64.48h37l4.08,0a5.09,5.09,0,0,1,5.09,5.09Zm12.47-74.68H220.6L209.52,151.1l11.08-17.65h22.15l11.07,17.65Z" style="fill:#004126"/></svg>