<?xml version="1.0" encoding="utf-8"?>
<!-- Generator: Adobe Illustrator 21.0.0, SVG Export Plug-In . SVG Version: 6.00 Build 0)  -->
<svg version="1.1" id="Layer_1" xmlns="http://www.w3.org/2000/svg" xmlns:xlink="http://www.w3.org/1999/xlink" x="0px" y="0px"
	 viewBox="0 0 30.3 30.3" style="enable-background:new 0 0 30.3 30.3;" xml:space="preserve">
<style type="text/css">
	.st0{fill:#998844;}
</style>
<title>kerrSymbols</title>
<path class="st0" d="M28,0.3H2.4c-1.1,0-2,0.9-2,2v25.6c0,1.1,0.9,2,2,2H28c1.1,0,2-0.9,2-2V2.3C30,1.2,29.1,0.3,28,0.3z M10.5,13
	l-1.4,2.3l1.4,2.3V25H6.9H5.7c-0.3,0-0.5-0.2-0.5-0.5l0,0v-2.2c0-0.3,0.2-0.5,0.5-0.5h1.2V8.9H5.7c-0.3,0-0.5-0.2-0.5-0.5
	c0,0,0,0,0,0V6.2c0-0.3,0.2-0.5,0.5-0.5h3.6h0h1.1V13z M23.3,24.5c0,0.3-0.2,0.5-0.5,0.5h-6l-5.9-9.7l5.9-9.7h2.3h0h3.6
	c0.3,0,0.5,0.2,0.5,0.5v2.2c0,0.3-0.2,0.5-0.5,0.5h-0.4h-3.7l-3.8,6.4l3.8,6.4h3.7h0.4c0.3,0,0.5,0.2,0.5,0.5c0,0,0,0,0,0L23.3,24.5
	z M24.5,17.1h-2.2l-1.1-1.8l1.1-1.8h2.2l1.1,1.8L24.5,17.1z"/>
</svg>
